<svg width="21" height="25" xmlns="http://www.w3.org/2000/svg"><path d="m19.906631,11.831003c-0.330638,-0.330638 -0.731994,-0.495771 -1.204502,-0.495771l-0.566365,0l0,-3.400669c0,-2.172595 -0.779139,-4.038 -2.337789,-5.59665c-1.558526,-1.558526 -3.423745,-2.337913 -5.59665,-2.337913c-2.172719,0 -4.038372,0.779325 -5.59665,2.337913c-1.558712,1.55865 -2.337851,3.423994 -2.337851,5.59665l0,3.400669l-0.566613,0c-0.472074,0 -0.873678,0.165195 -1.204316,0.495833c-0.330638,0.330638 -0.495895,0.731994 -0.495895,1.204688l0,10.201387c0,0.472074 0.165319,0.873926 0.495895,1.204688c0.330638,0.330266 0.73218,0.495647 1.204316,0.495647l17.002353,0c0.472508,0 0.87374,-0.165195 1.204502,-0.495647c0.330328,-0.330638 0.495895,-0.732428 0.495895,-1.204564l0,-10.201821c0.000496,-0.472198 -0.165319,-0.873678 -0.496267,-1.204316l-0.000062,-0.000124zm-5.171225,-0.495647l-9.067913,0l0,-3.400669c0,-1.251585 0.442794,-2.320234 1.32832,-3.205636c0.88565,-0.885526 1.954051,-1.328134 3.20576,-1.328134c1.251833,0 2.320048,0.442546 3.205884,1.328134c0.885216,0.88534 1.328134,1.954051 1.328134,3.205574l0,3.400669l-0.000186,0.000062z" fill="#fff"/></svg>