<svg xmlns="http://www.w3.org/2000/svg" width="15" height="15" viewBox="0 0 511.627 511.627" enable-background="new 0 0 511.627 511.627"><path d="M503.633 117.628c-5.332-5.327-11.8-7.993-19.41-7.993h-118.777c-11.417 0-23.603 3.806-36.542 11.42v-93.643c0-7.616-2.662-14.092-7.994-19.417-5.332-5.329-11.8-7.995-19.418-7.995h-118.767c-7.614 0-15.99 1.903-25.125 5.708-9.136 3.806-16.368 8.376-21.7 13.706l-116.486 116.487c-5.33 5.329-9.9 12.563-13.706 21.698-3.805 9.139-5.708 17.509-5.708 25.126v191.858c0 7.618 2.663 14.093 7.992 19.417 5.33 5.332 11.803 7.994 19.414 7.994h155.318v82.229c0 7.61 2.662 14.085 7.992 19.41 5.327 5.332 11.8 7.994 19.414 7.994h274.091c7.61 0 14.085-2.662 19.41-7.994 5.332-5.325 7.994-11.8 7.994-19.41v-347.177c.002-7.614-2.66-14.088-7.992-19.418zm-174.729 52.821v85.364h-85.366l85.366-85.364zm-182.726-109.636v85.364h-85.364l85.364-85.364zm55.961 184.722c-5.33 5.33-9.9 12.564-13.706 21.701-3.805 9.141-5.708 17.508-5.708 25.126v73.083h-146.178v-182.72h118.766c7.616 0 14.087-2.664 19.417-7.994 5.327-5.33 7.994-11.801 7.994-19.412v-118.772h109.637v118.771l-90.222 90.217zm272.939 229.55h-255.815v-182.73h118.775c7.614 0 14.082-2.662 19.41-7.994 5.328-5.325 7.994-11.797 7.994-19.41v-118.773h109.629v328.907h.007z" fill="#fff"/></svg>