<svg version="1" xmlns="http://www.w3.org/2000/svg" width="21.333" height="21.333" viewBox="0 0 16.000000 16.000000"><path d="M.006 1.082a1.73 1.73 0 0 1 .074.13l.003.004a2.14 2.14 0 0 0 .055.095 17.484 17.484 0 0 1 .138.237l.002.002a207.52 207.52 0 0 1 .195.34l.01.015a20.374 20.374 0 0 1 .152.262l.043.076a.41.41 0 0 0 .024.04.445.445 0 0 1 .045.077l.013.02a6.88 6.88 0 0 0 .125.22l.02.032.034.06.12.21.012.018a.152.152 0 0 1 .007.015 1.52 1.52 0 0 1 .037.064l.057.1.043.07.028.05a.433.433 0 0 1 .02.033l.03.053.096.164.105.182.065.112a5.77 5.77 0 0 0 .046.08l.016.025.028.05.01.018.053.09a41.95 41.95 0 0 0 .068.117l.082.143a35.282 35.282 0 0 1 .202.35 10.84 10.84 0 0 0 .13.228l.048.083a1.08 1.08 0 0 0 .036.06l.025.044.06.106.042.072.04.07.014.022a54.195 54.195 0 0 0 .152.264l.023.04.016.027.01.015.01.016.032.056.013.024.085.146a15.03 15.03 0 0 1 .088.15l.036.064.053.094.013.02.033.06.007.013.047.082.078.134.042.074a46.396 46.396 0 0 0 .17.294l.008.015a1.384 1.384 0 0 0 .052.09 14.38 14.38 0 0 1 .185.32 8.6 8.6 0 0 1 .164.286 40.25 40.25 0 1 0 .296.512 8.6 8.6 0 0 1 .087.15l.09.157a.27.27 0 0 0 .02.03l.025.046.108.187.013.022a13.338 13.338 0 0 1 .107.186l.025.04a2.593 2.593 0 0 1 .05.09.995.995 0 0 1 .03.053l.1.17a1.593 1.593 0 1 0 .04.07l.078.135.083.144a31.478 31.478 0 0 0 .192.333l.048.083.035.06.047.082.048.083a23.784 23.784 0 0 0 .215.37 2.69 2.69 0 0 0 .056.1l.09.153.01.02a39.436 39.436 0 0 0 .226.392 21.96 21.96 0 0 1 .19.326l.043.076.042.074.108.186.01.018.086.148.01.015.05.09a1.934 1.934 0 0 1 .053.09 2.75 2.75 0 0 0 .06.106l.078.134.05.084.05.086.01.018.07.122.073.126.01.016a5.277 5.277 0 0 0 .097.17l.02.035.026.044.05.088.122.21.09.156.042.074.08.138a24.21 24.21 0 0 0 .146.253l.038.064.018.032.01.02.007.01.002.002.045.08a3.82 3.82 0 0 1 .058.1l.02.033.012.024a6.243 6.243 0 0 0 .047.082l.01.02a.54.54 0 0 1 .032.053l.006.01.013.022.013.022.013.023a7.317 7.317 0 0 0 .09.154l.016.006a4.137 4.137 0 0 0 .02-.037l.068-.114.07-.12a.923.923 0 0 1 .03-.055l.014-.022a6.455 6.455 0 0 1 .138-.24.325.325 0 0 0 .017-.026l.012-.022a.293.293 0 0 0 .013-.022l.014-.025.096-.164a7.528 7.528 0 0 0 .082-.14 4.337 4.337 0 0 1 .107-.19 257.57 257.57 0 0 0 .43-.742l.01-.02.045-.077.08-.135.07-.125a10.455 10.455 0 0 1 .082-.14l.12-.21.013-.02.065-.113a2.375 2.375 0 0 0 .06-.106l.004-.002.006-.012a12.176 12.176 0 0 1 .097-.167l.08-.138a2.868 2.868 0 0 0 .077-.134l.07-.12a11.06 11.06 0 0 1 .126-.22 1.19 1.19 0 0 1 .037-.066l.002-.003.005-.01a6.41 6.41 0 0 0 .118-.205l.02-.034a26.29 26.29 0 0 0 .203-.35 15.36 15.36 0 0 1 .306-.53l.03-.052.028-.05.067-.114.067-.117a40.462 40.462 0 0 1 .18-.312 187.535 187.535 0 0 0 .346-.6l.128-.22a3.125 3.125 0 0 0 .06-.103 4.75 4.75 0 0 1 .084-.145l.018-.034a6.955 6.955 0 0 0 .106-.182.177.177 0 0 1 .01-.018.31.31 0 0 0 .01-.014 5.342 5.342 0 0 1 .104-.18l.207-.36.054-.095.054-.09.01-.016a.68.68 0 0 0 .016-.03l.022-.037.06-.103.057-.1.01-.022.04-.067.037-.064a31.07 31.07 0 0 1 .143-.247l.008-.013a13.582 13.582 0 0 1 .107-.185 8.177 8.177 0 0 0 .1-.174.542.542 0 0 1 .03-.052l.026-.044a1.515 1.515 0 0 0 .028-.048l.088-.15.08-.138a.88.88 0 0 1 .025-.043l.007-.01a7.803 7.803 0 0 1 .122-.214 3.98 3.98 0 0 1 .055-.095l.05-.09.066-.11.015-.025.088-.152.03-.053.03-.05.07-.122a22.228 22.228 0 0 1 .19-.327l.01-.023.047-.078.043-.075.04-.07.063-.108.032-.056.066-.114.114-.196.032-.056a38.218 38.218 0 0 1 .258-.448l.012-.02.046-.08.036-.063.04-.07a.264.264 0 0 0 .01-.018l.007-.01a8.196 8.196 0 0 0 .13-.228.166.166 0 0 1 .016-.027l.03-.052.088-.153.075-.13.027-.05a.178.178 0 0 1 .02-.03l.052-.093.007-.015.015-.026a49.272 49.272 0 0 1 .214-.37l.165-.288a1.496 1.496 0 0 1 .037-.06 6.4 6.4 0 0 1 .048-.086l.05-.085a1.44 1.44 0 0 1 .022-.04l.024-.04a.222.222 0 0 1 .032-.05l.044-.08.007-.01a2.19 2.19 0 0 1 .034-.062l.026-.056h-3.076c-1.692-.002-3.077 0-3.078 0l-.198.342-.103.18a48.098 48.098 0 0 1-.2.344l-.08.14-.023.04a24.32 24.32 0 0 0-.086.15l-.137.236-.18.312a23.356 23.356 0 0 1-.13.225 19.488 19.488 0 0 0-.15.26l-.066.114-.13.226a111.752 111.752 0 0 1-.363.627l-.035-.06-.06-.106-.208-.358-.102-.176-.322-.56a1.44 1.44 0 0 0-.023-.04l-.025-.042a4.884 4.884 0 0 0-.07-.122l-.06-.104-.06-.104a2.614 2.614 0 0 0-.037-.062l-.065-.114-.084-.145-.054-.09a25.227 25.227 0 0 0-.113-.197l-.016-.027a13.893 13.893 0 0 0-.16-.278 36.908 36.908 0 0 1-.16-.277l-.125-.217-.047-.08-.015-.026-.007-.012h-6.152l.006.01z"/></svg>