<svg width="130" height="30" xmlns="http://www.w3.org/2000/svg" clip-rule="evenodd"><path d="M4.854 11.24H.63c.143-2.505.86-4.438 2.363-5.87 1.432-1.432 3.293-2.15 5.585-2.15 1.432 0 2.65.288 3.723.86s1.934 1.433 2.58 2.578c.643 1.074.93 2.22.93 3.366 0 1.36-.358 2.864-1.146 4.44s-2.22 3.436-4.296 5.584l-2.578 2.72h8.163v4.01H.057v-2.076l7.09-7.232c1.717-1.718 2.863-3.15 3.436-4.224s.86-2.005.86-2.864-.288-1.647-.86-2.22-1.36-.86-2.292-.86-1.717.36-2.362 1.075-.93 1.647-1.002 2.864h-.072z" fill="#fff"/><path d="M15.452 3.794h16.54V26.78h-4.44V7.946h-7.66V26.78h-4.44V3.793zm16.754 0h4.654c2.507 0 4.297.215 5.442.716 1.074.43 2.005 1.218 2.65 2.22s.93 2.29.93 3.723c0 1.576-.43 2.936-1.29 4.01s-2.003 1.79-3.435 2.22c-.86.214-2.363.358-4.655.358v9.74h-4.367V3.793h.07zm4.296 9.022h1.433c1.074 0 1.86-.07 2.29-.215s.788-.428 1.003-.786.358-.788.358-1.29c0-.858-.358-1.574-1.074-1.932-.5-.287-1.432-.43-2.792-.43h-1.218v4.726-.072z" fill="#fff"/><path d="M48.675 3.794h4.367L61.85 26.78h-4.583l-1.79-4.727h-9.38l-1.862 4.726h-4.582l8.88-22.986h.142zM50.75 9.88l-3.078 7.877h6.23l-3.08-7.877h-.07z" fill="#fff"/><path d="M61.563 26.78V3.793h3.652c2.076 0 3.65.144 4.582.43 1.36.358 2.506 1.074 3.294 2.005.79 1 1.218 2.147 1.218 3.507 0 .86-.215 1.647-.573 2.363s-1.002 1.36-1.79 2.005c1.36.644 2.435 1.504 3.08 2.434.644 1.002.93 2.147.93 3.508 0 1.29-.358 2.434-1.002 3.508s-1.504 1.862-2.578 2.363-2.506.787-4.368.787h-6.444v.072zM65.93 7.875v4.87h1.003c1.074 0 1.933-.216 2.435-.646s.787-1.074.787-1.862c0-.716-.286-1.288-.716-1.718-.502-.43-1.29-.644-2.292-.644h-1.216zm0 8.735v5.872h1.075c1.86 0 3.08-.214 3.723-.716.645-.43.93-1.145.93-2.004 0-1.003-.357-1.79-1.145-2.363-.716-.574-2.005-.86-3.723-.86h-.93l.07.07z" fill="#fff"/><path d="M92.567 3.794V26.78H88.2V12.386L79.534 26.78h-3.723V3.793h4.296v14.893l8.807-14.893h3.652z" fill="#fff"/><path d="M107.675 26.78L101.302 9.95 94.858 26.78h-4.654l8.878-22.986h4.44L112.4 26.78h-4.725z" fill="#fff"/><path d="M116.768 3.794h4.368l8.807 22.985h-4.583l-1.79-4.727h-9.38l-1.86 4.726h-4.584l8.88-22.986h.142zm2.077 6.086l-3.08 7.877h6.23l-3.08-7.877h-.07z" fill="#fff"/></svg>