<svg width="32" height="30" xmlns="http://www.w3.org/2000/svg" clip-rule="evenodd"><path fill="#fff" d="M4.854 11.24H.63c.143-2.505.86-4.438 2.363-5.87 1.432-1.432 3.293-2.148 5.585-2.148 1.432 0 2.65.286 3.723.86s1.934 1.43 2.58 2.576c.643 1.074.93 2.22.93 3.366 0 1.36-.358 2.864-1.146 4.44s-2.22 3.436-4.296 5.584l-2.578 2.72h8.163v4.01H.057v-2.076l7.09-7.232c1.717-1.718 2.863-3.15 3.436-4.224s.86-2.005.86-2.864-.288-1.647-.86-2.22-1.36-.86-2.292-.86-1.717.36-2.362 1.075-.93 1.647-1.002 2.864h-.072z"/><path fill="#fff" d="M15.452 3.794h16.54V26.78l-4.44-.002V7.95h-7.66v18.83h-4.44V3.794z"/></svg>