<svg xmlns="http://www.w3.org/2000/svg" viewBox="0 0 512.003 512.003"><path fill="#899dc1" d="M509.605 171.075l-99.3-99.3a8.177 8.177 0 0 0-11.565 0l-49.65 49.65a8.177 8.177 0 0 0 0 11.563l4.953 4.953-11.382 11.38c-7.388 7.387-18.853 9.403-28.527 5.012-9.07-4.117-19.153-6.292-29.16-6.292a70.36 70.36 0 0 0-33.815 8.633 55.047 55.047 0 0 0-13.18-1.603 54.95 54.95 0 0 0-18.828 3.31c-9.65 3.506-19.996 1.333-27.003-5.672L171.71 132.27l2.434-2.434a8.177 8.177 0 0 0 0-11.564l-49.65-49.65a8.177 8.177 0 0 0-11.565 0L2.394 179.156a8.178 8.178 0 0 0 0 11.564l49.65 49.65a8.176 8.176 0 0 0 11.565 0l2.96-2.96 14.415 14.413c3.637 3.637 6.048 8.178 6.97 13.13 4.787 25.684 17.087 49.033 35.57 67.527l2.716 2.715c-5.213 5.49-8.08 12.645-8.08 20.245 0 7.86 3.06 15.252 8.62 20.81 5.737 5.74 13.272 8.607 20.81 8.607.49 0 .98-.013 1.47-.038-.397 8.018 2.46 16.17 8.57 22.28 5.558 5.56 12.95 8.62 20.81 8.62.22 0 .437-.01.656-.015-.168 7.75 2.69 15.552 8.59 21.453 5.56 5.56 12.95 8.62 20.813 8.62 7.86 0 15.25-3.062 20.81-8.62.468-.468.91-.952 1.34-1.442a27.53 27.53 0 0 0 9.052 1.546c7.353 0 14.26-2.865 19.44-8.062a27.39 27.39 0 0 0 6.212-9.53l.837.838c5.36 5.36 12.4 8.04 19.438 8.04 7.04 0 14.078-2.68 19.437-8.04a27.373 27.373 0 0 0 6.344-9.878 27.444 27.444 0 0 0 16.157 5.236c7.04 0 14.082-2.68 19.446-8.036 5.19-5.19 8.05-12.097 8.05-19.445 0-2.22-.266-4.397-.773-6.502 5.237-1.064 10.05-3.635 13.91-7.5 5.19-5.192 8.05-12.095 8.05-19.438 0-5.785-1.782-11.292-5.073-15.91l6.56-6.56c18.7-18.708 31.052-42.35 35.725-68.37.783-4.358 2.94-8.405 6.243-11.708L444.103 228l4.29 4.288a8.152 8.152 0 0 0 5.782 2.395 8.154 8.154 0 0 0 5.783-2.395l49.65-49.65a8.177 8.177 0 0 0-.003-11.563zm-451.778 51.95L19.74 184.94l98.97-98.97 38.087 38.086-98.97 98.97zm99.01 141.664c-5.098 5.095-13.393 5.097-18.494 0a12.993 12.993 0 0 1-3.83-9.248c0-3.492 1.36-6.776 3.83-9.246a13.033 13.033 0 0 1 9.246-3.824c3.347 0 6.697 1.275 9.245 3.824 5.098 5.098 5.098 13.394 0 18.493zm30.847 30.847a12.978 12.978 0 0 1-9.246 3.83 12.99 12.99 0 0 1-9.245-3.83c-5.1-5.098-5.1-13.394 0-18.493a13.033 13.033 0 0 1 9.246-3.824c3.346 0 6.696 1.275 9.244 3.824 5.1 5.098 5.1 13.395 0 18.493zm30.058 30.057a12.99 12.99 0 0 1-9.245 3.83c-3.493 0-6.777-1.36-9.246-3.83-5.098-5.098-5.098-13.394 0-18.493a13.033 13.033 0 0 1 9.247-3.823c3.347 0 6.697 1.275 9.245 3.824 5.1 5.1 5.1 13.396 0 18.494zm138.888-62.772c-2.102 2.104-4.897 3.263-7.87 3.263s-5.766-1.16-7.872-3.268l-79.33-79.312a8.178 8.178 0 0 0-11.563 11.566l85.45 85.443a11.056 11.056 0 0 1 3.26 7.872c0 2.98-1.157 5.78-3.256 7.878-4.348 4.343-11.417 4.344-15.757.003l-14.416-14.416c-.08-.083-.158-.167-.24-.25-.025-.023-.052-.044-.077-.068l-66.267-66.267a8.18 8.18 0 0 0-11.565 0 8.176 8.176 0 0 0 0 11.564l66.48 66.478a11.052 11.052 0 0 1 3.15 7.763c0 2.975-1.158 5.77-3.26 7.873-4.338 4.34-11.4 4.34-15.743 0l-72.085-72.086a8.177 8.177 0 0 0-11.565 0 8.176 8.176 0 0 0 0 11.564l53.434 53.436c.014.015.026.032.042.046a11.028 11.028 0 0 1 3.257 7.86c0 2.972-1.16 5.768-3.27 7.88a11.04 11.04 0 0 1-7.87 3.262c-.72 0-1.422-.074-2.11-.204 1.323-8.913-1.436-18.32-8.282-25.167-5.56-5.558-12.95-8.62-20.81-8.62-.22 0-.438.01-.657.016.17-7.75-2.69-15.553-8.59-21.454-5.56-5.558-12.95-8.62-20.812-8.62-.492 0-.98.012-1.47.036.394-8.014-2.462-16.158-8.57-22.266-7.433-7.433-17.883-10.044-27.443-7.847l-5.864-5.865c-16.14-16.147-26.877-36.535-31.056-58.96-1.53-8.213-5.502-15.717-11.483-21.7l-14.414-14.414 82.01-82.01 20.438 20.44c7.856 7.855 18.552 12.06 29.507 12.06a42.87 42.87 0 0 0 14.647-2.582 38.486 38.486 0 0 1 7.144-1.832l-50.63 50.633c-6.196 6.193-9.608 14.43-9.608 23.19 0 8.76 3.412 16.996 9.606 23.19 6.394 6.394 14.79 9.59 23.19 9.59 8.398 0 16.797-3.2 23.192-9.59l25.43-25.43 6.883 6.888.005.005.286.286.275.274.004.004.005.005c.078.078.155.152.232.226l95.88 95.88a11.056 11.056 0 0 1 3.26 7.872c0 2.98-1.156 5.775-3.262 7.88zm51.507-121.988c-5.674 5.675-9.4 12.723-10.774 20.38-4.08 22.72-14.867 43.365-31.193 59.7l-6.284 6.284-51.73-51.73a45.99 45.99 0 0 0 3.39.137c5.237 0 10.597-.918 15.933-3.1a8.177 8.177 0 0 0-6.193-15.137c-21.046 8.61-46.278-15.12-49.087-17.855a5.984 5.984 0 0 0-.142-.135l-.29-.29s-.002 0-.003-.002l-.253-.252-.005-.004-6.884-6.89 7.806-7.806a8.176 8.176 0 0 0 0-11.565 8.178 8.178 0 0 0-11.564 0l-13.57 13.57-.016.014-.015.016-31.2 31.2c-6.412 6.41-16.842 6.41-23.252 0a16.334 16.334 0 0 1-4.815-11.626c0-4.392 1.71-8.52 4.816-11.626l53.852-53.854a54.46 54.46 0 0 1 9.905-7.837c8.504-5.256 18.325-8.034 28.402-8.034 7.693 0 15.44 1.67 22.403 4.83 15.842 7.19 34.67 3.84 46.85-8.337l11.384-11.38 66.928 66.928-24.4 24.4zm46.035-25.89l-87.736-87.736 38.087-38.086 87.736 87.736-38.088 38.086z"/><circle fill="#899dc1"  cx="462.41" cy="183.11" r="8.177"/><circle fill="#899dc1" cx="53.567" cy="191.189" r="8.177"/></svg>
