<svg xmlns="http://www.w3.org/2000/svg" width="20" height="20" viewBox="0 0 488.3 488.3"><path fill="#899dc1" d="M412.3 307.25c-19.3-15.9-40.1-26.4-44.3-28.4-.5-.2-.8-.7-.8-1.2v-30c3.8-2.5 6.3-6.8 6.3-11.7v-31.2c0-15.5-12.6-28.1-28.1-28.1h-6.8c-15.5 0-28.1 12.6-28.1 28.1v31.2c0 4.9 2.5 9.2 6.3 11.7v30c0 .2 0 .4-.1.5 5.9 4.1 12.1 8.6 18.1 13.5 7.1 5.8 11.1 14.4 11.1 23.6v25.1h71.8v-21.3c0-4.7-2-9-5.4-11.8z"/><path fill="#899dc1" d="M326.8 301.45c-22.7-18.6-47.1-31-52.1-33.4-.6-.3-.9-.8-.9-1.5v-35.3c4.4-3 7.4-8 7.4-13.7v-36.6c0-18.2-14.8-33-33-33h-7.9c-18.2 0-33 14.8-33 33v36.6c0 5.7 2.9 10.8 7.4 13.7v35.3c0 .6-.4 1.2-.9 1.5-5 2.4-29.4 14.8-52.1 33.4-4.1 3.4-6.5 8.4-6.5 13.7v25.1h178v-25.1c0-5.3-2.3-10.4-6.4-13.7z"/><path fill="#899dc1" d="M171.5 277.55v-30c3.8-2.5 6.3-6.8 6.3-11.7v-31.2c0-15.5-12.6-28.1-28.1-28.1h-6.8c-15.5 0-28.1 12.6-28.1 28.1v31.2c0 4.9 2.5 9.2 6.3 11.7v30c0 .5-.3 1-.8 1.2-4.2 2.1-25 12.6-44.3 28.4a15.2 15.2 0 0 0-5.5 11.7v21.3h71.8v-25.1c0-9.2 4-17.8 11.1-23.6 6-5 12.2-9.5 18.1-13.5.1-.1 0-.3 0-.4zm312.4 36.2c-15.5-12.7-32.1-21.1-35.5-22.8-.4-.2-.6-.6-.6-1v-24.1c3-2 5-5.5 5-9.4v-25c0-12.4-10.1-22.5-22.5-22.5h-5.4c-12.4 0-22.5 10.1-22.5 22.5v25c0 3.9 2 7.3 5 9.4v21.3c4.3 3 8.7 6.4 13.1 9.9 6.5 5.4 10.3 13.3 10.3 21.8v21.3h57.5v-17.1c0-3.5-1.6-7-4.4-9.3z"/><path fill="#899dc1" d="M80.9 265.95c3-2 5-5.5 5-9.4v-25c0-12.4-10.1-22.5-22.5-22.5H58c-12.4 0-22.5 10.1-22.5 22.5v25c0 3.9 2 7.3 5 9.4v24.1c0 .4-.2.8-.6 1-3.4 1.7-20.1 10.1-35.5 22.8-2.8 2.3-4.4 5.7-4.4 9.3v17.1h57.5v-21.3c0-8.5 3.7-16.4 10.3-21.8 4.3-3.6 8.8-6.9 13.1-9.9v-21.3z"/></svg>