<svg xmlns="http://www.w3.org/2000/svg" width="14" height="14" viewBox="0 0 324.701 324.701"><path fill="#fff" d="M242.538 154.438c12.07-1.032 22.667-6.11 31.544-15.153 30.51-31.08 29.583-100.347 29.53-103.28-.1-5.447-4.544-9.81-9.993-9.814l-50.27-.03V5a5 5 0 0 0-5-5h-152a5 5 0 0 0-5 5v21.156l-50.27.034a10 10 0 0 0-9.99 9.814c-.057 2.934-.98 72.2 29.53 103.28 8.874 9.043 19.47 14.12 31.54 15.153 4.618 32.323 28.83 58.395 60.19 65.782v62.93h-25.33a5 5 0 0 0-4.1 2.14l-22 31.55a5 5 0 0 0 4.1 7.86h134.686a5 5 0 0 0 5-5c0-1.21-.507-2.196-1.145-3.185l-21.773-31.226a5 5 0 0 0-4.1-2.14H182.35v-62.93c31.355-7.39 55.57-33.46 60.186-65.783zm40.92-108.255c-.966 22.133-6.194 61.31-23.648 79.09-4.822 4.912-10.247 7.85-16.46 8.91V46.157l40.107.027zm-242.205 0l40.097-.026v88.027c-6.207-1.06-11.626-3.99-16.444-8.894-17.42-17.727-22.67-56.95-23.653-79.107zm79.664 37.272l28.63-4.16 12.804-25.943 12.807 25.943 28.63 4.16-20.717 20.194 4.89 28.512-25.607-13.463-25.607 13.463 4.89-28.515-20.718-20.196z"/></svg>