<svg xmlns="http://www.w3.org/2000/svg" width="550.801" height="550.801" viewBox="0 0 550.801 550.801"><path d="M475.095 131.997c-.032-2.526-.833-5.02-2.568-6.992L366.324 3.695c-.02-.032-.053-.043-.084-.077-.633-.707-1.36-1.29-2.14-1.804-.233-.15-.466-.285-.708-.422a11.65 11.65 0 0 0-2.13-.89c-.2-.06-.38-.142-.58-.194C359.87.118 359.046 0 358.2 0H97.2C85.292 0 75.6 9.693 75.6 21.6v507.6c0 11.914 9.692 21.602 21.6 21.602h356.4c11.918 0 21.6-9.688 21.6-21.6v-396c0-.403-.063-.804-.105-1.205zM273.72 414.313l-50.115 103.612h-30.11l50.128-97.817v-.363h-55.74v-23.383h85.84v17.95zM382.4 517.926h-95.85v-14.998l58.714-84.512v-.728h-53.23v-23.05h89.448v16.09l-57.443 83.414v.728h58.36v23.056zM97.2 366.752V21.602h250.203v110.514c0 5.96 4.83 10.8 10.8 10.8H453.6l.01 223.836H97.2z"/><path d="M157.54 148.84h157.148v20.813h-157.15z"/><path d="M393.262 196.302v-26.656h-78.574v26.656h26.587v58.82h-26.587v25.455h-157.15v20.797h157.15V281.76h78.574v-26.636h-43.908v-10.558h17.34v-7.817h-17.34v-9.08h17.34v-7.83h-17.34v-8.878h17.34v-7.803h-17.34V196.3z"/><path d="M177.757 180.354H294.48v90.727H177.757z"/></svg>