<svg xmlns="http://www.w3.org/2000/svg" viewBox="0 0 317.001 317.001"><path d="M211.648 249.457c-2.36 0-3.96.23-4.797.456v15.152c.99.23 2.21.305 3.885.305 6.167 0 9.975-3.122 9.975-8.375 0-4.722-3.275-7.538-9.062-7.538z"/><path d="M270.825 70.55L212.17 3.66A10.743 10.743 0 0 0 204.093 0H55.94c-6.864 0-12.43 5.566-12.43 12.43v292.14c0 6.866 5.566 12.43 12.43 12.43h205.12c6.865 0 12.43-5.565 12.43-12.43V77.632a10.74 10.74 0 0 0-2.665-7.083zm-149.71 179.668L100.707 292.4H88.45l20.405-39.822v-.152h-22.69v-9.518h34.95v7.31zm45.228 42.182h-39.898v-6.243l24.44-35.178v-.306H128.73v-9.594h37.232v6.7l-23.908 34.72v.306h24.29v9.594zm18.96 0h-11.65v-51.32h11.65v51.32zm42.183-23.527c-3.96 3.73-9.822 5.405-16.675 5.405-1.522 0-2.893-.076-3.96-.228v18.35h-11.496v-50.634c3.578-.61 8.604-1.066 15.685-1.066 7.157 0 12.258 1.37 15.685 4.112 3.274 2.588 5.482 6.853 5.482 11.878s-1.676 9.29-4.72 12.183zm-171.545-57.8V12.433h144v63.6c0 3.43 2.78 6.216 6.216 6.216h54.904l.006 128.823H55.94z"/><path d="M123.123 41.893V31.87a3.99 3.99 0 0 0-3.99-3.988h-13.036a3.99 3.99 0 0 1-3.99-3.99V14.2a3.99 3.99 0 0 0-3.988-3.99H76.963a3.99 3.99 0 0 0-3.99 3.99v10.022a3.99 3.99 0 0 0 3.99 3.99H90a3.99 3.99 0 0 1 3.99 3.988v8.798a3.99 3.99 0 0 1-3.99 3.99H76.965a3.99 3.99 0 0 0-3.99 3.988v10.022a3.99 3.99 0 0 0 3.99 3.99H90a3.99 3.99 0 0 1 3.99 3.988v9.266a3.99 3.99 0 0 1-3.99 3.99H76.965a3.99 3.99 0 0 0-3.99 3.988v10.022a3.99 3.99 0 0 0 3.99 3.99H98.12a3.99 3.99 0 0 0 3.99-3.99v-9.595a3.99 3.99 0 0 1 3.988-3.99h13.037a3.99 3.99 0 0 0 3.99-3.988V66.645a3.99 3.99 0 0 0-3.99-3.99h-13.037a3.99 3.99 0 0 1-3.99-3.988V49.87a3.99 3.99 0 0 1 3.99-3.99h13.037a3.987 3.987 0 0 0 3.988-3.987zM76.964 148.9h3.827a3.99 3.99 0 0 1 3.99 3.99v22.34a3.99 3.99 0 0 0 3.99 3.99h18.56a3.99 3.99 0 0 0 3.99-3.99v-22.34a3.99 3.99 0 0 1 3.99-3.99h3.826a3.99 3.99 0 0 0 3.99-3.99v-32.797a3.99 3.99 0 0 0-3.99-3.99H76.964a3.99 3.99 0 0 0-3.99 3.99v32.798a3.988 3.988 0 0 0 3.99 3.99z"/></svg>