<svg xmlns="http://www.w3.org/2000/svg" width="550.801" height="550.801" viewBox="0 0 550.801 550.801"><path d="M191.458 414.566h-.39c-1.938 7.768-3.88 17.682-6.02 25.27l-7.77 27.792h28.958l-8.163-27.79c-2.334-7.775-4.667-17.498-6.615-25.272z"/><path d="M475.084 131.992c-.02-2.526-.828-5.02-2.562-6.993L366.324 3.693c-.03-.034-.062-.045-.084-.076-.633-.707-1.37-1.29-2.15-1.804A11.34 11.34 0 0 0 361.252.5c-.202-.058-.38-.14-.58-.192a10.558 10.558 0 0 0-2.48-.308H97.2C85.282 0 75.6 9.693 75.6 21.6v507.6c0 11.914 9.682 21.602 21.6 21.602h356.4c11.908 0 21.6-9.688 21.6-21.6v-396c0-.406-.063-.804-.116-1.21zm-254.467 391.43l-10.115-33.63H172.99l-9.326 33.63H132.95l40.035-131.015h38.873l40.624 131.014h-31.865zm103.425 0h-34.604l-41.98-131.015h32.462l15.937 55.397c4.472 15.552 8.554 30.518 11.665 46.844h.585c3.302-15.746 7.383-31.292 11.855-46.253l16.717-55.982h31.48L324.043 523.42zm87.866 0h-29.742V392.406h29.742V523.42zM97.2 366.75V21.602h250.192v110.514c0 5.96 4.842 10.8 10.8 10.8H453.6v223.836H97.2z"/><path d="M173.32 96.24v223.446H372.6V96.24H173.32zm163.552 17.685v86.74H205.685v-86.74h131.187zm-155.297 18.122h17.695v19.148h-17.695v-19.148zm0 43.33h17.695v19.147h-17.695v-19.148zm17.695 105.228h-17.695v-19.153h17.695v19.153zm0-43.334h-17.695v-19.146h17.695v19.147zm6.415 66.496v-88.512h131.187v88.512H205.685zm157.86-23.16h-17.708V261.45h17.71v19.153zm0-43.335h-17.708v-19.146h17.71v19.147zm0-42.746h-17.708v-19.148h17.71v19.148zm0-43.33h-17.708v-19.147h17.71v19.148z"/></svg>