<svg xmlns="http://www.w3.org/2000/svg" width="550.801" height="550.801" viewBox="0 0 550.801 550.801"><path d="M157.362 461.516h-8.7v31.805c2.506.333 5.518.333 9.87.333 11.552 0 21.746-4.35 21.746-16.23 0-11.388-10.2-15.907-22.916-15.907zM401.825 417.003c-5.188 0-8.706.506-10.54 1.018v33.298c2.166.5 4.845.664 8.525.664 13.56 0 21.928-6.86 21.928-18.404 0-10.385-7.193-16.575-19.913-16.575z"/><path d="M475.095 131.992c-.032-2.526-.833-5.02-2.568-6.993L366.324 3.693c-.02-.03-.053-.045-.084-.076-.633-.707-1.36-1.29-2.14-1.804-.233-.15-.466-.285-.708-.422a11.662 11.662 0 0 0-2.13-.892c-.2-.058-.38-.14-.58-.192C359.87.118 359.046 0 358.2 0H97.2C85.292 0 75.6 9.693 75.6 21.6v507.6c0 11.914 9.692 21.602 21.6 21.602h356.4c11.918 0 21.6-9.688 21.6-21.6v-396c0-.406-.063-.804-.105-1.21zm-279.75 370.356c-8.204 6.53-21.922 10.21-44.35 10.21-12.544 0-21.92-.833-27.605-1.677V400.107c6.694-1.34 20.245-2.34 32.96-2.34 15.563 0 25.1 1.496 33.303 6.353 7.863 4.18 13.553 11.88 13.553 22.09 0 10.04-5.86 19.416-18.57 24.1v.337c12.886 3.512 22.422 13.215 22.422 27.78 0 10.2-4.687 18.236-11.714 23.92zm126.16 9.04l-1.67-43.175c-.507-13.553-1.008-29.953-1.008-46.354h-.496c-3.517 14.39-8.21 30.453-12.555 43.674l-13.722 44.007h-19.91l-12.047-43.674c-3.684-13.215-7.533-29.278-10.212-44.007h-.335c-.67 15.224-1.177 32.63-2.01 46.685l-2.006 42.847H221.94l7.193-112.793h33.97l11.043 37.656c3.515 13.052 7.032 27.11 9.542 40.33h.5c3.182-13.056 7.03-27.948 10.712-40.493l12.044-37.483h33.302l6.187 112.788h-24.928v-.01zM436.63 459.68c-8.7 8.2-21.59 11.882-36.65 11.882-3.343 0-6.36-.17-8.695-.506v40.33H366.01v-111.28c7.867-1.338 18.91-2.34 34.472-2.34 15.73 0 26.942 3.01 34.473 9.038 7.193 5.685 12.045 15.056 12.045 26.1-.002 11.046-3.673 20.417-10.37 26.777zM97.2 366.753V21.602h250.203v110.514c0 5.96 4.83 10.8 10.8 10.8H453.6l.01 223.836H97.2z"/><path d="M177.606 429.396c0-8.532-6.523-13.058-18.074-13.058-5.52 0-8.7.338-10.877.665v26.277h8.367c13.392 0 20.584-5.52 20.584-13.884zM321.184 171.295c-3.976 0-7.646.728-10.726 1.975-1.245-1.208-2.942-1.975-4.81-1.975h-2.79c-3.55 0-6.36 2.7-6.766 6.133-8.59.902-14.966 4.003-14.966 7.723 0 4.423 8.965 8 20.028 8 3.238 0 6.255-.34 8.95-.866 3.126 1.34 6.938 2.144 11.078 2.144 10.59 0 19.164-5.19 19.164-11.564.012-6.385-8.563-11.57-19.162-11.57zM204.045 150.834c-8.872 0-16.044 7.17-16.044 16.01 0 8.857 7.173 16.023 16.045 16.023 8.844 0 16.016-7.167 16.016-16.023 0-8.84-7.17-16.01-16.015-16.01z"/><path d="M164.468 103.87v208.845h208.797V103.87H164.468zM356.02 249.673c0 7.944-3.058 15.138-8.004 20.44-7.69-19.646-17.118-40.985-30.46-37.568-16.917 4.327-25.977 41.062-27.264 46.65h-.337c-1.282-6.085-11.064-49.306-35.037-73.32-24.03-24.022-47.363 60.718-50.512 72.673-12.96-2.822-22.687-14.677-22.687-28.876v-94.96c0-16.29 12.82-29.51 28.647-29.51H327.37c15.825 0 28.65 13.22 28.65 29.51v94.96z"/></svg>