<svg xmlns="http://www.w3.org/2000/svg" width="550.801" height="550.801" viewBox="0 0 550.801 550.801"><path d="M281 413.575c-18.58 0-29.415 17.687-29.415 41.322 0 23.825 11.19 40.605 29.595 40.605 18.594 0 29.236-17.687 29.236-41.322 0-21.842-10.463-40.605-29.416-40.605zM142.57 413.934c-6.14 0-10.115.538-12.456 1.076v79.586c2.34.55 6.138.55 9.563.55 24.898.18 41.14-13.543 41.14-42.59.19-25.27-14.61-38.622-38.247-38.622z"/><path d="M475.095 131.992c-.032-2.526-.833-5.02-2.568-6.993L366.324 3.693c-.02-.034-.053-.045-.084-.076-.633-.707-1.36-1.29-2.14-1.804-.233-.15-.466-.285-.708-.422a11.662 11.662 0 0 0-2.13-.892c-.2-.058-.38-.14-.58-.192A10.61 10.61 0 0 0 358.2 0H97.2C85.292 0 75.6 9.693 75.6 21.6v507.6c0 11.914 9.692 21.602 21.6 21.602h356.4c11.918 0 21.6-9.688 21.6-21.6v-396c0-.406-.063-.804-.105-1.21zm-285.24 368.922c-12.815 10.652-32.306 15.704-56.134 15.704-14.26 0-24.365-.907-31.218-1.804V395.35c10.104-1.624 23.28-2.53 37.18-2.53 23.095 0 38.074 4.155 49.803 12.993 12.638 9.387 20.58 24.363 20.58 45.837-.005 23.282-8.482 39.34-20.21 49.264zm89.88 16.432c-36.092 0-57.207-27.253-57.207-61.905 0-36.454 23.28-63.702 59.19-63.702 37.355 0 57.754 27.976 57.754 61.536 0 39.888-24.184 64.072-59.738 64.072zm140.052-22.918c8.3 0 17.508-1.814 22.918-3.972l4.155 21.474c-5.052 2.537-16.42 5.236-31.22 5.236-42.05 0-63.702-26.172-63.702-60.818 0-41.502 29.595-64.604 66.403-64.604 14.26 0 25.092 2.885 29.965 5.416l-5.6 21.832c-5.586-2.342-13.354-4.515-23.094-4.515-21.83 0-38.806 13.18-38.806 40.247.002 24.358 14.44 39.704 38.983 39.704zM97.2 366.752V21.602h250.203v110.514c0 5.96 4.83 10.8 10.8 10.8H453.6l.01 223.836H97.2z"/><path d="M248.023 149.1h78.592c3.945 0 7.15-3.202 7.15-7.154a7.156 7.156 0 0 0-7.15-7.156h-78.592a7.147 7.147 0 0 0-7.146 7.156 7.136 7.136 0 0 0 7.146 7.153zM365.06 192.024H169.537c-3.952 0-7.16 3.2-7.16 7.153 0 3.955 3.208 7.15 7.16 7.15h195.52c3.956 0 7.163-3.195 7.163-7.15 0-3.95-3.2-7.153-7.16-7.153zM189.973 163.432l6.626-26.937c1.694-6.54 2.804-12.062 3.828-18.18h.166c.675 6.2 1.695 11.64 3.138 18.18l5.956 26.937h11.222l15.367-57.267h-10.62l-5.947 25.914c-1.53 6.97-2.896 13.504-3.91 19.8h-.177c-.844-6.203-2.036-12.576-3.478-19.374l-5.693-26.335h-10.96l-6.194 25.915c-1.627 7.22-3.25 14.025-4.174 20.05h-.158c-.934-5.69-2.3-13.002-3.747-19.968l-5.44-25.996h-11.132l14.022 57.268h11.303v-.006zM365.06 248.85H169.537a7.16 7.16 0 0 0-7.16 7.155c0 3.952 3.208 7.153 7.16 7.153h195.52a7.154 7.154 0 1 0 0-14.31zM365.06 307.03H169.537a7.163 7.163 0 0 0-7.16 7.16c0 3.95 3.208 7.152 7.16 7.152h195.52c3.956 0 7.163-3.2 7.163-7.15 0-3.956-3.2-7.162-7.16-7.162z"/></svg>