<svg xmlns="http://www.w3.org/2000/svg" width="550.801" height="550.801" viewBox="0 0 550.801 550.801"><path d="M475.095 131.992c-.032-2.526-.833-5.02-2.568-6.993L366.324 3.693c-.02-.034-.053-.045-.084-.076-.633-.707-1.36-1.29-2.14-1.804-.233-.15-.466-.285-.708-.422a11.662 11.662 0 0 0-2.13-.892c-.2-.058-.38-.14-.58-.192A10.61 10.61 0 0 0 358.2 0H97.2C85.292 0 75.6 9.693 75.6 21.6v507.6c0 11.914 9.692 21.602 21.6 21.602h356.4c11.918 0 21.6-9.688 21.6-21.6v-396c0-.406-.063-.804-.105-1.21zm-129.02 101.57c.157-.082.315-.18.474-.254 1.075-.55 2.204-1.004 3.31-1.484.802-.34 1.588-.725 2.395-1.025.332-.128.686-.218 1.013-.34 17.967-6.4 38.67-4.275 55.37 7.59 27.148 19.3 33.54 57.063 14.25 84.232-9.788 13.753-24.32 22.17-39.825 24.632-1.77.28-3.555.507-5.315.628h-.127c-30.474 1.95-58.17-19.454-63.375-50.214-4.494-26.518 9.122-52.005 31.83-63.767zM97.2 21.6h250.203v110.514c0 5.96 4.83 10.8 10.8 10.8H453.6v52.078l-22.127-15.712c-1.393-1-2.215-.472-2.832-.076-.004.005-.015.01-.015.01-.042.022-.095.01-.127.038a40.397 40.397 0 0 1-11.153 5.09c-.258.073-.52.112-.785.18-1.002.265-2.004.52-3.032.702-5.358.968-10.922.875-16.29-.372-10.726-2.423-20.14-9.28-25.818-18.744a2.514 2.514 0 0 0-2.553-1.17l-30.628 5.183c-1.02.174-1.842.968-2.053 1.946-2.235 10.8-8.86 20.365-18.188 26.192-9.31 5.874-20.863 7.707-31.552 5.002-.665-.153-1.625-.412-2.632 1L271.37 221.75c-.036-.016-.08-.026-.112-.047l-5.622 7.894c-.578.824-.588 1.984-.047 2.844 6.042 9.223 8.11 20.656 5.657 31.385-2.473 10.75-9.305 20.188-18.766 25.83-.855.507-1.344 1.562-1.18 2.568l5.19 30.634c.284 1.688 1.236 1.898 1.953 2.05 10.72 2.19 20.358 8.845 26.195 18.21 4.45 7.057 6.556 15.362 6.16 23.63H97.2V21.603zm109.86 500.59h-83.587V391.184h80.863v24.29h-51.12v27.222h48.21v24.1h-48.21V497.9h53.843v24.292zm89.233 0l-11.865-23.715c-4.852-9.134-7.963-15.937-11.65-23.52h-.39c-2.723 7.583-6.032 14.386-10.116 23.52l-10.884 23.715h-33.816l37.897-66.282-36.538-64.727h34.014l11.464 23.915c3.895 7.963 6.806 14.38 9.914 21.764h.39c3.112-8.353 5.633-14.186 8.944-21.764l11.074-23.915h33.824l-36.936 63.95 38.876 67.063h-34.204v-.004zm133.745 0h-83.584V391.184h80.853v24.29h-51.12v27.222h48.21v24.1h-48.21V497.9h53.852v24.292z"/><path d="M244.69 251.12a18.496 18.496 0 0 1-6.34-12.942 18.454 18.454 0 0 1 4.974-13.542c.32-.335.393-.844.2-1.253l-4.147-8.717c.02-.016.042-.037.063-.042l-1.883-3.952c-.07-.153-.195-.246-.324-.34a.236.236 0 0 0-.05-.05c-.058-.048-.108-.093-.172-.125a.914.914 0 0 0-.43-.103c-.056-.005-.1-.026-.135-.032-4.968.356-9.938-1.35-13.624-4.683-3.698-3.336-5.918-8.106-6.063-13.084a1.15 1.15 0 0 0-.762-1.03l-13.226-4.694c-.73-.258-1.016.077-1.238.32-.005.004-.005.004-.005.015a.16.16 0 0 0-.06.026 18.117 18.117 0 0 1-4.212 3.586c-.103.065-.208.118-.316.18-.402.24-.813.463-1.238.674a18.268 18.268 0 0 1-7.13 1.846c-4.962.27-9.898-1.55-13.532-4.962-.33-.31-.83-.388-1.252-.195l-12.675 6.032c-.422.206-.68.654-.65 1.097.36 4.973-1.338 9.95-4.668 13.634-3.322 3.705-8.12 5.922-13.102 6.064-.31.026-.76.026-1.02.76l-3.25 9.14c-.01 0-.038 0-.054-.012l-1.47 4.13c-.15.432-.005.936.335 1.25 3.763 3.258 6.075 7.973 6.328 12.935.253 4.98-1.55 9.922-4.967 13.545-.31.33-.388.84-.195 1.253l6.044 12.686c.334.702.767.665 1.102.646 4.925-.366 9.935 1.34 13.624 4.688 3.705 3.322 5.906 8.096 6.07 13.073.01.454.313.87.743 1.034l13.226 4.683c.086.03.165.01.252.01.596.143.865-.132 1.055-.368a18.187 18.187 0 0 1 2.753-2.584 1.01 1.01 0 0 0 .134-.096c.433-.337.886-.633 1.34-.917.345-.21.714-.406 1.075-.59.165-.096.34-.19.516-.275a18.353 18.353 0 0 1 7.063-1.824c4.95-.27 9.92 1.55 13.55 4.968.23.205.547.517 1.25.19l12.68-6.034c.017-.005.022-.01.033-.016l.03-.016c.434-.206.676-.64.65-1.103a18.457 18.457 0 0 1 4.68-13.634c1.94-2.138 4.374-3.772 7.042-4.806.13-.047.274-.113.412-.16.227-.083.464-.14.696-.223.382-.118.773-.236 1.15-.34.065-.01.113-.02.18-.036a18.18 18.18 0 0 1 3.53-.46 1.14 1.14 0 0 0 1.03-.76l4.705-13.232a1.142 1.142 0 0 0-.328-1.23zm-28-1.37c-2.56 7.188-7.84 12.64-14.272 15.623-.738.34-1.48.664-2.23.928-.02.007-.042.017-.063.022-13.004 4.606-27.686-1.28-33.75-14.006-5.215-10.97-2.436-23.733 5.973-31.643.058-.05.113-.122.18-.174.392-.368.824-.708 1.25-1.053.312-.25.594-.514.913-.746.125-.09.27-.173.4-.268 7.015-4.997 16.28-6.632 25.008-3.528 14.185 5.033 21.627 20.656 16.593 34.846zM226.913 133.785c.248 4.973-1.55 9.92-4.967 13.544-.31.326-.39.84-.2 1.257l6.043 12.672c.333.703.77.674 1.106.652 4.922-.372 9.935 1.334 13.624 4.683 3.705 3.325 5.906 8.1 6.064 13.078.016.454.316.87.75 1.03l13.225 4.694c.086.02.166 0 .252.01.593.14.86-.14 1.052-.37a17.763 17.763 0 0 1 2.755-2.587c.04-.032.097-.06.133-.092.433-.33.876-.638 1.34-.923.345-.21.717-.406 1.076-.588.165-.098.334-.195.516-.277a18.185 18.185 0 0 1 7.06-1.82c4.956-.276 9.93 1.546 13.546 4.968.227.206.56.525 1.26.19l12.678-6.033c.01 0 .02-.016.026-.016l.043-.017c.42-.206.674-.64.642-1.097a18.467 18.467 0 0 1 4.684-13.634c1.94-2.144 4.377-3.78 7.045-4.812.128-.053.275-.113.407-.155.227-.087.47-.147.7-.227.375-.113.76-.237 1.15-.335.053-.01.11-.016.174-.04a18.173 18.173 0 0 1 3.534-.458c.47-.02.87-.31 1.028-.76l4.704-13.23c.147-.438.02-.923-.332-1.23a18.482 18.482 0 0 1-6.34-12.95c-.247-4.98 1.557-9.914 4.974-13.542.316-.33.39-.838.19-1.255l-4.135-8.71c.02-.015.032-.036.063-.04l-1.888-3.953c-.068-.148-.2-.245-.316-.343-.016-.016-.032-.032-.053-.048-.064-.042-.112-.092-.175-.124a.96.96 0 0 0-.433-.108c-.06-.005-.1-.032-.132-.032-4.973.35-9.94-1.35-13.627-4.678a18.465 18.465 0 0 1-6.07-13.088c-.005-.454-.31-.87-.753-1.034l-13.227-4.69c-.738-.26-1.022.076-1.244.32v.004c-.022.01-.038.016-.06.03a18.408 18.408 0 0 1-4.213 3.587c-.105.06-.216.12-.316.18-.405.243-.81.465-1.238.676a18.342 18.342 0 0 1-7.122 1.85c-4.967.265-9.903-1.555-13.537-4.966a1.132 1.132 0 0 0-1.252-.195l-12.68 6.038c-.42.2-.674.648-.643 1.09.356 4.975-1.34 9.953-4.675 13.642-3.317 3.704-8.116 5.922-13.097 6.057-.314.023-.762.023-1.02.767l-3.252 9.135c-.01-.005-.037 0-.053-.005l-1.474 4.126c-.147.438-.01.936.34 1.247a18.345 18.345 0 0 1 6.337 12.932zm28.793-22.394c.066-.046.114-.112.172-.165.4-.37.833-.71 1.26-1.06.31-.242.598-.506.912-.743.13-.087.27-.174.398-.272 7.017-5 16.276-6.63 25.004-3.53 14.186 5.038 21.62 20.663 16.585 34.852-2.558 7.19-7.836 12.64-14.27 15.622-.743.338-1.477.662-2.23.93-.02 0-.042.01-.063.015-13.004 4.61-27.686-1.282-33.74-14.01-5.223-10.962-2.442-23.718 5.972-31.64z"/></svg>