<svg xmlns="http://www.w3.org/2000/svg" width="548.291" height="548.291" viewBox="0 0 548.291 548.291"><path d="M472.93 131.385c-.032-2.514-.83-4.992-2.557-6.96L364.656 3.667c-.02-.03-.062-.044-.084-.07-.63-.71-1.354-1.284-2.132-1.795-.23-.15-.473-.29-.714-.42a10.67 10.67 0 0 0-2.12-.888c-.19-.058-.378-.144-.578-.186A10.386 10.386 0 0 0 356.572 0H96.757C84.904 0 75.255 9.644 75.255 21.502V526.79c0 11.854 9.65 21.5 21.502 21.5h354.775c11.853 0 21.503-9.646 21.503-21.5v-394.2c0-.404-.064-.8-.106-1.205zM244.59 511.292c-9.088 3.098-26.317 7.35-43.54 7.35-23.8 0-41.02-5.994-53.017-17.605-11.998-11.224-18.573-28.254-18.373-47.403.186-43.34 31.725-68.105 74.486-68.105 16.83 0 29.796 3.285 36.176 6.388l-6.192 23.6c-7.15-3.09-16.052-5.605-30.383-5.605-24.554 0-43.138 13.938-43.138 42.18 0 26.898 16.842 42.76 41.032 42.76 6.77 0 12.188-.77 14.506-1.93v-27.276h-20.126v-23.035h48.567v68.68zm52.642 5.997h-29.606V386.88h29.606v130.41zm105.27-106.23h-50.12v29.807h46.825v23.99h-46.825v52.432h-29.607V386.88h79.73v24.18zM96.758 365.077V21.502H345.82v110.006c0 5.935 4.81 10.75 10.752 10.75h94.96l.012 222.817H96.757z"/><path d="M366.45 292.24l-55.938-66.108h31.077l-51.56-60.93h32.127l-42.395-50.072h19.758l-32.588-38.51-29.625 38.51h19.98l-38.518 50.072h31.524l-46.875 60.93h29.286l-50.862 66.108h85.264v79.99h14.072v-79.99z"/></svg>