<svg xmlns="http://www.w3.org/2000/svg" width="24" height="24" viewBox="0 0 548.291 548.291"><g fill="#2b384e"><path d="M472.93 131.385c-.032-2.514-.84-4.992-2.567-6.96L364.656 3.667c-.03-.03-.062-.044-.084-.07-.63-.71-1.365-1.284-2.142-1.795-.23-.15-.463-.29-.704-.42a10.67 10.67 0 0 0-2.12-.888c-.2-.058-.378-.144-.578-.186A10.406 10.406 0 0 0 356.56 0H96.758C84.904 0 75.255 9.644 75.255 21.502V526.79c0 11.854 9.65 21.5 21.502 21.5h354.775c11.853 0 21.503-9.646 21.503-21.5v-394.2c0-.404-.064-.8-.106-1.205zM165.852 484.783c-9.837 8.18-24.796 12.055-43.09 12.055-10.938 0-18.7-.693-23.96-1.387v-91.705c7.76-1.243 17.87-1.932 28.54-1.932 17.732 0 29.23 3.183 38.223 9.976 9.705 7.2 15.8 18.697 15.8 35.18 0 17.87-6.512 30.204-15.513 37.816zm68.992 12.61c-27.703 0-43.917-20.926-43.917-47.52 0-27.978 17.867-48.907 45.44-48.907 28.682 0 44.323 21.48 44.323 47.244.007 30.62-18.553 49.183-45.845 49.183zm107.51-17.597c6.374 0 13.44-1.387 17.592-3.044l3.187 16.483c-3.88 1.932-12.604 4.02-23.96 4.02-32.288 0-48.907-20.084-48.907-46.688 0-31.864 22.724-49.602 50.977-49.602 10.94 0 19.255 2.22 22.992 4.158l-4.293 16.76c-4.295-1.805-10.247-3.464-17.733-3.464-16.77 0-29.787 10.11-29.787 30.885.01 18.71 11.096 30.49 29.93 30.49zm84.232 16.075l-8.45-16.9c-3.465-6.51-5.68-11.36-8.316-16.77h-.27c-1.943 5.41-4.296 10.26-7.202 16.77l-7.76 16.9h-24.104l27.013-47.242L371.46 402.5h24.24l8.168 17.044c2.77 5.67 4.85 10.247 7.064 15.508h.274c2.216-5.95 4.02-10.11 6.373-15.508l7.892-17.044h24.105l-26.316 45.57 27.7 47.805h-24.377v-.004zM96.756 365.08V21.502H345.81v110.006c0 5.935 4.82 10.75 10.75 10.75h94.973v222.817H96.757z"/><path d="M129.558 418.01c-4.713 0-7.755.42-9.562.834v61.09c1.806.408 4.713.408 7.347.408 19.12.143 31.58-10.388 31.58-32.683.134-19.394-11.223-29.65-29.365-29.65zm106.255-.272c-14.268 0-22.572 13.574-22.572 31.722 0 18.284 8.59 31.166 22.726 31.166 14.265 0 22.435-13.574 22.435-31.717-.005-16.77-8.034-31.174-22.586-31.174zm104.56-237.978V118.7H130.73v148.72h61.064v61.057h209.64V179.76H340.37zm-148.58 76.91H141.48V129.45h188.14v50.31H191.795v76.91zm198.89 61.056h-188.14V190.51h188.138v127.216z"/><circle cx="233.131" cy="213.354" r="7.166"/><path d="M251.3 210.667h109.302v5.375H251.3z"/><circle cx="233.131" cy="239.334" r="7.166"/><path d="M251.3 236.646h109.302v5.375H251.3z"/><circle cx="233.131" cy="267.294" r="7.167"/><path d="M251.3 264.604h109.302v5.375H251.3zm-18.17 21.95a7.17 7.17 0 0 1 7.167 7.173c0 3.952-3.21 7.16-7.166 7.16a7.163 7.163 0 0 1-7.162-7.16 7.17 7.17 0 0 1 7.165-7.172zm18.17 4.484h109.302v5.375H251.3z"/></g></svg>