<svg xmlns="http://www.w3.org/2000/svg" width="24" height="24" viewBox="0 0 548.29 548.291"><g fill="#2b384e"><path d="M472.93 131.4c-.032-2.52-.824-5-2.55-6.962L364.654 3.678c-.02-.032-.052-.043-.083-.074-.63-.707-1.354-1.287-2.13-1.795-.23-.154-.463-.288-.705-.423a11.55 11.55 0 0 0-2.12-.887c-.2-.06-.378-.138-.578-.193A10.9 10.9 0 0 0 356.57 0H96.758C84.904 0 75.255 9.65 75.255 21.502V526.79c0 11.858 9.65 21.5 21.502 21.5h354.776c11.862 0 21.502-9.642 21.502-21.5V132.6c0-.4-.062-.805-.106-1.2zM165.544 508.216l-9.352-18.703c-3.83-7.21-6.278-12.574-9.192-18.547h-.306c-2.145 5.973-4.75 11.338-7.966 18.547l-8.585 18.703H103.48l29.89-52.273-28.813-51.03h26.822l9.04 18.862c3.063 6.276 5.364 11.327 7.82 17.155h.3c2.458-6.593 4.447-11.187 7.048-17.154l8.74-18.86h26.662l-29.118 50.413 30.657 52.887h-26.986zm104.046 0h-64.525v-103.3h23.452v83.67h41.074v19.63zm39.07 1.522c-11.795 0-23.44-3.065-29.263-6.283l4.743-19.308c6.287 3.21 15.947 6.43 25.9 6.43 10.734 0 16.398-4.437 16.398-11.193 0-6.425-4.903-10.11-17.316-14.55-17.16-5.974-28.354-15.476-28.354-30.5 0-17.622 14.71-31.107 39.087-31.107 11.64 0 20.232 2.446 26.353 5.212L341 427.293c-4.14-1.99-11.495-4.908-21.612-4.908-10.115 0-15.013 4.594-15.013 9.97 0 6.586 5.822 9.5 19.155 14.55 18.237 6.752 26.814 16.246 26.814 30.805.002 17.32-13.332 32.03-41.684 32.03zm111.87-1.523l-9.354-18.703c-3.833-7.21-6.28-12.574-9.198-18.547h-.294c-2.142 5.973-4.755 11.338-7.975 18.547l-8.585 18.703H358.46l29.886-52.273-28.814-51.03h26.823l9.05 18.862c3.062 6.276 5.355 11.327 7.807 17.155h.31c2.446-6.594 4.44-11.188 7.05-17.155l8.736-18.86h26.666l-29.117 50.413 30.65 52.888H420.53zM96.757 365.085V21.507H345.82v110.015c0 5.935 4.81 10.75 10.75 10.75h94.963l.01 222.813H96.757z"/><path d="M310.933 138.004h-178.28v166.64H405.45V138.002h-94.517zm0 80.632h-83.765v-34.94h83.765v34.94zM138.028 143.38h83.765v34.94h-83.765v-34.94zm0 40.316h83.765v34.94h-83.765v-34.94zm0 40.315h83.765v34.94h-83.765v-34.94zm0 75.26v-34.943h83.765v34.943h-83.765zm89.14 0v-34.943h83.765v34.943h-83.765zm172.91 0h-83.77v-34.943h83.764v34.943h.006zm0-80.633h-83.77v-34.94h83.764v34.94h.006zm-83.77-40.316v-34.94h83.765v34.94H316.31z"/></g></svg>