<svg xmlns="http://www.w3.org/2000/svg" width="15" height="15" viewBox="0 0 485.211 485.211"><path fill="#fff" d="M460.955 176.4c13.33-10.01 24.256-4.53 24.256 12.14v272.935c0 16.67-10.924 22.15-24.254 12.14l-72.792-54.61C374.84 409 363.91 387.167 363.91 370.495V279.52c0-16.676 10.93-38.5 24.254-48.512l72.792-54.607zM60.65 36.915C27.16 36.915 0 64.07 0 97.565s27.158 60.653 60.65 60.653c33.5 0 60.654-27.16 60.654-60.653 0-33.495-27.155-60.65-60.653-60.65zM242.607 6.587c-41.875 0-75.812 33.94-75.812 75.814s33.937 75.82 75.812 75.82c41.873 0 75.816-33.94 75.816-75.818S284.48 6.588 242.606 6.588zM121.304 249.194h212.282V431.15c0 16.763-13.566 30.325-30.33 30.325H30.326C13.562 461.475 0 447.913 0 431.15V218.866c0-16.764 13.564-30.327 30.327-30.327h272.928c16.765 0 30.33 13.566 30.33 30.326h-212.28v30.327zm0 121.302c0-16.76-13.565-30.322-30.327-30.322S60.65 353.736 60.65 370.496c0 16.764 13.565 30.322 30.327 30.322s30.327-13.558 30.327-30.322z"/></svg>