<svg xmlns="http://www.w3.org/2000/svg" width="15" height="15" viewBox="0 0 31.106 31.106"><g fill="#fff"><path d="M21.24 5.555C21.24 2.488 19.232 0 15.552 0 11.87 0 9.996 2.488 9.996 5.555V6.88h11.242V5.555zm-5.687 14.442c3.68 0 5.686-2.486 5.686-5.553V7.85H9.994v6.593c0 3.068 1.873 5.554 5.557 5.554z"/><path d="M23.33 6.666v7.778c0 4.288-2.877 7.776-7.777 7.776s-7.777-3.488-7.777-7.776V6.666c-1.24-1.24-2.22 0-2.22 0v7.777c0 5.146 3.888 9.38 8.886 9.934v3.45l-4.428.01-1.13 3.27h12.97l-1.104-3.282h-4.087v-3.45c5-.554 8.887-4.788 8.887-9.933h.002V6.666c-1.364-1.36-2.222 0-2.222 0z"/></g></svg>