<svg xmlns="http://www.w3.org/2000/svg" width="550.801" height="550.801" viewBox="0 0 550.801 550.801"><path d="M475.095 131.992c-.032-2.526-.844-5.02-2.58-6.993L366.326 3.693c-.032-.034-.063-.045-.085-.076-.633-.707-1.37-1.29-2.15-1.804A11.07 11.07 0 0 0 361.252.5c-.202-.058-.38-.14-.58-.192a10.558 10.558 0 0 0-2.48-.308H97.2C85.292 0 75.6 9.693 75.6 21.6v507.6c0 11.914 9.692 21.602 21.6 21.602h356.4c11.908 0 21.6-9.688 21.6-21.6v-396c0-.406-.063-.804-.105-1.21zM183.27 473.312c0 37.314-17.89 50.34-46.65 50.34-6.803 0-15.747-1.165-21.576-3.11l3.31-23.91c4.08 1.36 9.325 2.34 15.158 2.34 12.445 0 20.216-5.642 20.216-26.05V390.51h29.544v82.802zm106.727-11.854c-10.114 9.523-25.083 13.795-42.57 13.795-3.892 0-7.39-.19-10.114-.58v46.85H207.96V392.26c9.142-1.56 21.967-2.72 40.044-2.72 18.27 0 31.298 3.495 40.046 10.493 8.358 6.612 13.99 17.486 13.99 30.322 0 12.825-4.27 23.714-12.043 31.103zm140.347 54.03c-9.133 3.112-26.436 7.39-43.743 7.39-23.897 0-41.205-6.028-53.244-17.683-12.056-11.28-18.668-28.38-18.468-47.63.19-43.537 31.867-68.417 74.824-68.417 16.923 0 29.943 3.3 36.35 6.418l-6.217 23.715c-7.193-3.11-16.132-5.632-30.518-5.632-24.68 0-43.337 13.996-43.337 42.378 0 27.016 16.906 42.957 41.207 42.957 6.803 0 12.244-.785 14.575-1.95v-27.4h-20.218v-23.13h48.79v68.986zM97.2 366.753V21.602h250.192v110.514c0 5.96 4.842 10.8 10.8 10.8H453.6v223.836H97.2z"/><path d="M249.56 411.888c-6.02 0-10.1.58-12.248 1.17v38.676c2.534.58 5.646.78 9.917.78 15.745 0 25.47-7.973 25.47-21.378 0-12.056-8.364-19.248-23.14-19.248zM246.04 243.448C202.906 200.3 161.077 367.2 161.077 367.2h143.76s-15.642-80.578-58.797-123.752z"/><path d="M350.673 287.978c-30.575 7.82-45.837 79.223-45.837 79.223h103.096c-13.995-35.774-31.145-85.904-57.26-79.222zM161.088 204.99c14.773 0 26.747-11.966 26.747-26.748 0-14.778-11.973-26.733-26.747-26.733-14.797 0-26.768 11.954-26.768 26.732 0 14.782 11.97 26.747 26.768 26.747zM323.293 222.184c5.4 0 10.452-.557 14.945-1.464 5.23 2.247 11.59 3.592 18.51 3.592 17.67 0 32.015-8.65 32.015-19.312 0-10.67-14.338-19.316-32.015-19.316-6.645 0-12.793 1.215-17.92 3.3-2.088-2.02-4.914-3.3-8.04-3.3h-4.637c-5.937 0-10.64 4.498-11.315 10.25-14.354 1.49-24.976 6.67-24.976 12.874-.006 7.393 14.96 13.376 33.433 13.376z"/></svg>