<svg xmlns="http://www.w3.org/2000/svg" width="550.801" height="550.801" viewBox="0 0 550.801 550.801"><path d="M285.108 440.29l-14.83 24.2v.343h24.887V440.29c0-6.645.337-13.468.854-20.624h-.687c-3.575 7.16-6.47 13.632-10.225 20.624z"/><path d="M475.095 131.997c-.032-2.528-.833-5.023-2.568-6.992L366.324 3.69c-.02-.03-.053-.04-.084-.072-.633-.707-1.36-1.292-2.14-1.804a10.984 10.984 0 0 0-.708-.422 11.662 11.662 0 0 0-2.13-.892c-.2-.058-.38-.14-.58-.195A11.05 11.05 0 0 0 358.2 0H97.2C85.292 0 75.6 9.693 75.6 21.6v507.6c0 11.914 9.692 21.602 21.6 21.602h356.4c11.918 0 21.6-9.688 21.6-21.6v-396c0-.406-.063-.806-.105-1.205zM208.09 510.68l-1.7-43.97c-.515-13.806-1.024-30.512-1.024-47.218h-.512c-3.58 14.66-8.348 31.023-12.783 44.486l-13.974 44.83h-20.282l-12.27-44.482c-3.754-13.468-7.666-29.826-10.395-44.834h-.34c-.68 15.514-1.193 33.238-2.042 47.556l-2.046 43.632h-24.036l7.328-114.87h34.6l11.247 38.353c3.582 13.29 7.163 27.606 9.715 41.07h.514c3.24-13.29 7.16-28.467 10.907-41.25l12.27-38.174h33.916l6.307 114.87h-25.4zm124.917-26.414h-13.294v26.425H295.17v-26.424h-49.088V467.39l41.927-67.488h31.703v64.937h13.294v19.426zm72.426 26.414h-30.338L338.28 395.81h28.46l13.976 48.573c3.918 13.637 7.504 26.763 10.226 41.08h.51c2.897-13.812 6.482-27.443 10.4-40.57l14.655-49.09h27.617l-38.69 114.877zM97.2 366.752V21.602h250.203v110.514c0 5.96 4.83 10.8 10.8 10.8H453.6l.01 223.836H97.2z"/><path d="M198.635 155.185H212.1v14.57h-13.465zM198.635 220.7H212.1v14.572h-13.465zM198.635 188.167H212.1v14.576h-13.465zM198.635 253.677H212.1v14.578h-13.465zM370.248 213.63c0-26.175-9.988-49.995-26.235-68.072v136.145c16.253-18.086 26.235-41.91 26.235-68.073zM210.832 298.002c16.355 11.148 36.1 17.688 57.343 17.688 21.252 0 40.99-6.54 57.354-17.688M166.116 213.63c0 26.167 9.982 49.987 26.232 68.072V145.547c-16.255 18.088-26.232 41.908-26.232 68.083zM268.175 111.552c-20.37 0-39.32 6.064-55.263 16.385h110.53c-15.948-10.32-34.89-16.385-55.267-16.385zM216.983 141.405h99.84v66.013h-99.84zM216.983 218.52h99.84v67.364h-99.84zM323.652 155.185h13.48v14.57h-13.48zM323.652 220.7h13.48v14.572h-13.48zM323.652 188.167h13.48v14.576h-13.48zM323.652 253.677h13.48v14.578h-13.48z"/></svg>