<svg xmlns="http://www.w3.org/2000/svg" width="550.801" height="550.801" viewBox="0 0 550.801 550.801"><path d="M294.796 411.55c-16.664 0-26.378 15.862-26.378 37.052 0 21.362 10.03 36.407 26.536 36.407 16.675 0 26.22-15.858 26.22-37.052 0-19.575-9.387-36.408-26.378-36.408z"/><path d="M475.095 131.986c-.032-2.525-.844-5.015-2.58-6.992L366.326 3.684c-.032-.03-.063-.045-.085-.07-.633-.713-1.37-1.29-2.15-1.804-.233-.15-.465-.29-.708-.422a10.7 10.7 0 0 0-2.13-.89c-.2-.06-.38-.146-.58-.19a10.507 10.507 0 0 0-2.48-.308H97.2C85.292 0 75.6 9.688 75.6 21.6v507.6c0 11.908 9.692 21.602 21.6 21.602h356.4c11.908 0 21.6-9.693 21.6-21.6V133.196c0-.406-.063-.804-.105-1.21zm-270.77 370.826l-1.625-41.75c-.487-13.104-.973-28.967-.973-44.824h-.485c-3.396 13.916-7.934 29.463-12.13 42.245l-13.267 42.557H156.59l-11.655-42.245c-3.562-12.783-7.288-28.313-9.87-42.557h-.33c-.643 14.73-1.127 31.562-1.94 45.146l-1.937 41.43h-22.815l6.96-109.062h32.844l10.687 36.402c3.396 12.625 6.795 26.22 9.218 39.003h.485c3.08-12.625 6.805-27.026 10.36-39.16l11.65-36.245h32.2l5.992 109.06h-24.115zm89.342 1.783c-32.365 0-51.3-24.438-51.3-55.498 0-32.695 20.872-57.127 53.072-57.127 33.495 0 51.784 25.086 51.784 55.176 0 35.764-21.684 57.45-53.557 57.45zm123.156-1.783H388.02l-34.958-109.06h27.026l13.263 46.115c3.725 12.94 7.12 25.407 9.72 39.003h.485c2.753-13.11 6.15-26.062 9.872-38.522l13.91-46.597h26.216l-36.73 109.062zM97.2 366.747V21.6h250.192v110.51c0 5.963 4.842 10.8 10.8 10.8H453.6V366.75H97.2z"/><path d="M275.4 109.514c-57.365 0-103.874 46.504-103.874 103.868 0 57.365 46.51 103.874 103.874 103.874s103.876-46.504 103.876-103.874-46.51-103.868-103.876-103.868zM211.425 236.59c-14.357-.928-25.254-13.333-24.327-27.68.93-14.37 13.324-25.263 27.696-24.332 14.35.923 25.252 13.332 24.3 27.702-.906 14.346-13.304 25.24-27.67 24.31zm56.684 64.73c-14.353-.92-25.25-13.316-24.327-27.687.934-14.347 13.34-25.244 27.69-24.306 14.336.93 25.273 13.318 24.324 27.686-.928 14.35-13.31 25.24-27.688 24.306zm-7.246-87.226c0-7.78 6.307-14.12 14.104-14.12 7.783 0 14.122 6.34 14.122 14.12 0 7.776-6.34 14.11-14.122 14.11-7.797 0-14.104-6.334-14.104-14.11zm14.652-36.645c-14.356-.924-25.25-13.322-24.355-27.692.945-14.356 13.333-25.25 27.71-24.305 14.36.917 25.25 13.305 24.32 27.67-.927 14.364-13.33 25.246-27.674 24.326zm55.392 66.848c-14.354-.93-25.25-13.318-24.342-27.68.95-14.37 13.32-25.253 27.706-24.314 14.354.91 25.25 13.302 24.326 27.68-.943 14.355-13.335 25.247-27.69 24.314z"/></svg>