<svg xmlns="http://www.w3.org/2000/svg" width="550.801" height="550.801" viewBox="0 0 550.801 550.801"><path d="M301.27 414.224c-5.483 0-9.206.532-11.147 1.05v35.236c2.3.527 5.137.718 9.028.718 14.345 0 23.204-7.267 23.204-19.485 0-10.97-7.614-17.52-21.083-17.52z"/><path d="M475.084 131.992c-.02-2.52-.828-5.02-2.562-6.993L366.324 3.69c-.03-.036-.062-.046-.084-.078-.633-.706-1.37-1.284-2.15-1.803a18.07 18.07 0 0 0-.708-.423 11.187 11.187 0 0 0-2.13-.886c-.2-.062-.38-.144-.58-.196a10.77 10.77 0 0 0-2.48-.304H97.2C85.282 0 75.6 9.693 75.6 21.6v507.6c0 11.908 9.682 21.602 21.6 21.602h356.4c11.908 0 21.6-9.693 21.6-21.6v-396c0-.41-.063-.81-.116-1.21zm-258.82 382.095l-1.77-45.68c-.54-14.343-1.065-31.703-1.065-49.053h-.53c-3.722 15.23-8.68 32.23-13.29 46.228l-14.516 46.564h-21.07l-12.75-46.228c-3.894-13.985-7.975-30.976-10.8-46.564h-.355c-.71 16.116-1.238 34.53-2.124 49.4l-2.133 45.332H110.9l7.612-119.338h35.943l11.687 39.835c3.72 13.816 7.436 28.688 10.093 42.668h.538c3.364-13.82 7.436-29.562 11.33-42.846l12.75-39.667h35.236l6.55 119.343h-26.376v.007zM338.11 459.37c-9.206 8.685-22.843 12.582-38.78 12.582-3.543 0-6.728-.18-9.207-.533v42.66h-26.75V396.343c8.333-1.43 20.022-2.49 36.485-2.49 16.643 0 28.508 3.196 36.48 9.572 7.616 6.006 12.752 15.926 12.752 27.622 0 11.68-3.902 21.605-10.98 28.323zm57.387 56.668c-14.882 0-27.453-3.897-34.183-8.143l5.495-20.187c4.777 2.48 15.756 7.077 26.735 7.077 13.985 0 21.073-6.73 21.073-15.398 0-11.333-11.338-16.475-23.203-16.475h-10.98v-19.3h10.453c9.027-.17 20.545-3.534 20.545-13.28 0-6.907-5.674-12.038-16.996-12.038-9.382 0-19.296 4.07-24.09 6.908l-5.49-19.49c6.91-4.414 20.715-8.665 35.603-8.665 24.605 0 38.242 12.93 38.242 28.688 0 12.214-6.908 21.78-21.072 26.736v.36c13.82 2.478 24.975 12.92 24.975 27.97-.005 20.367-17.893 35.238-47.108 35.238zM97.2 366.752V21.602h250.192v110.52c0 5.962 4.842 10.8 10.8 10.8H453.6V366.76H97.2v-.008z"/><path d="M352.002 234.668c-28.956-17.73-28.856-21.92-28.856-21.92-5.526.568-6.096 4.252-6.096 4.252v83.565c-4.155-1.276-9.092-1.51-14.175-.39-11.243 2.436-18.595 10.578-16.443 18.14 1.256 6.993 13.036 11.696 24.27 9.197 9.87-2.15 16.748-8.69 16.8-15.383h.022l.253-77.48s19.723-2.807 39.023 23.713c0 0 .052-13.688-14.798-23.695zM243.41 219.38c0 9.796 7.978 17.772 17.772 17.772 9.796 0 17.76-7.977 17.76-17.77 0-9.797-7.964-17.762-17.76-17.762-9.794 0-17.77 7.965-17.77 17.76z"/><path d="M227.188 219.38c0 18.745 15.25 33.993 33.995 33.993 18.73 0 33.982-15.248 33.982-33.992 0-18.74-15.25-33.992-33.982-33.992-18.745.006-33.995 15.256-33.995 33.993zm59.592 0c0 14.112-11.478 25.598-25.598 25.598-14.11 0-25.607-11.485-25.607-25.597 0-14.108 11.496-25.597 25.607-25.597 14.12 0 25.598 11.488 25.598 25.598z"/><path d="M301.65 293.43c2.732-.596 5.274-.928 8.28-.886l.01-10.056c-13.51 10.462-30.395 16.76-48.758 16.76-44.043 0-79.86-35.83-79.86-79.862 0-44.03 35.816-79.86 79.86-79.86 43.886 0 79.587 35.597 79.83 79.427 2.214 1.562 4.946 3.386 8.152 5.445.095-1.67.253-3.322.253-5.013 0-48.652-39.582-88.246-88.235-88.246-48.676 0-88.26 39.592-88.26 88.245 0 48.653 39.584 88.246 88.26 88.246 7.51 0 14.755-1.043 21.716-2.81 4.05-5.547 10.738-9.655 18.753-11.39z"/><path d="M335.59 248.147l-.067 18.58a88.176 88.176 0 0 0 9.207-19.197c-2.81-1.727-5.38-2.866-7.6-3.586-.463 1.427-1.012 2.808-1.54 4.203z"/></svg>