<svg xmlns="http://www.w3.org/2000/svg" width="550.801" height="550.801" viewBox="0 0 550.801 550.801"><path d="M402.058 439.257l-15.915 25.977v.358h26.693v-26.335c0-7.13.37-14.444.918-22.128h-.728c-3.838 7.682-6.95 14.628-10.968 22.127z"/><path d="M475.095 131.992c-.032-2.526-.844-5.02-2.568-6.993L366.324 3.693c-.02-.034-.053-.045-.084-.076-.633-.707-1.36-1.29-2.14-1.804-.233-.15-.466-.285-.708-.422a11.662 11.662 0 0 0-2.13-.892c-.2-.058-.38-.14-.59-.192C359.87.114 359.036 0 358.2 0H97.2C85.292 0 75.6 9.693 75.6 21.6v507.6c0 11.914 9.692 21.602 21.6 21.602h356.4c11.908 0 21.6-9.688 21.6-21.6v-396c0-.406-.063-.804-.105-1.21zM213.11 514.782l-1.825-47.187c-.562-14.797-1.097-32.73-1.097-50.65h-.55c-3.84 15.73-8.963 33.29-13.723 47.74L180.92 512.78h-21.755L146 465.043c-4.03-14.45-8.224-32.01-11.156-48.1h-.37c-.727 16.638-1.273 35.665-2.19 51.02l-2.183 46.82h-25.794l7.868-123.252H149.3l12.062 41.144c3.84 14.27 7.68 29.626 10.434 44.075h.55c3.463-14.27 7.68-30.543 11.697-44.254l13.17-40.964h36.384l6.773 123.25h-27.26zm125.835-56.51c-9.503 8.965-23.583 12.983-40.047 12.983-3.66 0-6.95-.18-9.503-.543v44.064h-27.62v-121.61c8.597-1.46 20.66-2.568 37.677-2.568 17.196 0 29.43 3.296 37.68 9.883 7.856 6.207 13.16 16.454 13.16 28.524-.01 12.088-4.038 22.323-11.347 29.268zm114.496 28.17h-14.27v28.34h-26.335v-28.34h-52.66v-18.108l44.982-72.414h34.014v69.667h14.27v20.856zM97.2 366.753V21.602h250.203v110.514c0 5.96 4.83 10.8 10.8 10.8H453.6l.01 223.836H97.2z"/><path d="M300.902 411.645c-5.664 0-9.503.55-11.507 1.087v36.397c2.362.547 5.295.737 9.323.737 14.81 0 23.958-7.505 23.958-20.13-.005-11.32-7.873-18.092-21.774-18.092zM188.82 276.28H340.73V164.954H188.82V276.28zm54.623-88.862c0-.588.345-1.15.875-1.402.55-.27 1.192-.2 1.67.17l51.992 33.19c.37.313.58.762.58 1.23 0 .475-.21.93-.58 1.237l-51.993 33.205c-.287.22-.622.34-.973.34l-.696-.16a1.56 1.56 0 0 1-.875-1.4v-66.41zM188.82 278.016v-1.734h-5.507v27.19h163.5v-27.19h-6.085v1.734H188.82zm154.523 1.74v20.24H186.796v-20.24h156.547zM183.312 164.953h5.508v-1.737h151.907v1.737h6.085v-27.187h-163.5v27.187zm3.484-23.71h156.547v20.232H186.796v-20.23z"/><path d="M192.884 146.054h23.267v9.855h-23.266zM222.684 146.054h23.27v9.855h-23.27zM252.26 146.054h23.266v9.855H252.26zM282.055 146.054h23.267v9.855h-23.267zM312.82 146.433h23.267v9.86H312.82zM193.163 284.623h23.28v9.86h-23.28zM222.972 284.623h23.27v9.86h-23.27zM252.548 284.623h23.27v9.86h-23.27zM282.35 284.623h23.268v9.86H282.35zM313.105 285.01h23.266v9.86h-23.265z"/></svg>