<svg xmlns="http://www.w3.org/2000/svg" width="548.291" height="548.291" viewBox="0 0 548.291 548.291"><path d="M299.31 415.28c-5.265 0-8.84.516-10.708 1.02v33.827c2.205.515 4.935.684 8.672.684 13.764 0 22.268-6.972 22.268-18.703-.01-10.536-7.318-16.826-20.232-16.826zM394.315 415.964h-.343c-1.695 6.804-3.4 15.47-5.264 22.1l-6.81 24.3h25.328l-7.128-24.3c-2.046-6.804-4.082-15.296-5.783-22.1z"/><path d="M472.93 131.396c-.032-2.517-.83-5-2.557-6.96L364.656 3.676c-.02-.032-.053-.043-.084-.074-.63-.704-1.354-1.287-2.132-1.796-.23-.152-.462-.286-.703-.42a11.583 11.583 0 0 0-2.12-.887c-.2-.06-.378-.14-.578-.195A10.91 10.91 0 0 0 356.57 0H96.757C84.904 0 75.255 9.65 75.255 21.502V526.79c0 11.858 9.65 21.5 21.502 21.5h354.775c11.863 0 21.503-9.642 21.503-21.5V132.595c0-.404-.064-.803-.106-1.2zM217.734 511.152l-1.698-43.854c-.51-13.77-1.02-30.42-1.02-47.087h-.513c-3.567 14.62-8.33 30.936-12.748 44.37l-13.935 44.697h-20.233l-12.24-44.368c-3.734-13.417-7.642-29.738-10.36-44.7h-.345c-.678 15.47-1.19 33.15-2.04 47.43l-2.036 43.513h-23.97l7.306-114.568h34.512l11.213 38.247c3.57 13.26 7.136 27.538 9.69 40.967h.517c3.23-13.262 7.14-28.39 10.874-41.137l12.234-38.078h33.827l6.288 114.568h-25.323zm79.707-40.458c-3.4 0-6.463-.168-8.84-.504v40.962h-25.67V398.116c7.987-1.36 19.2-2.373 35.014-2.373 15.98 0 27.37 3.056 35.024 9.177 7.306 5.773 12.23 15.296 12.23 26.52 0 11.22-3.738 20.734-10.534 27.192-8.845 8.326-21.928 12.062-37.224 12.062zm122.375 40.458l-8.84-29.413h-32.81l-8.162 29.412h-26.857l35.02-114.568h33.99l35.527 114.568h-27.868zm-323.06-146.07V21.5H345.82v110.01c0 5.936 4.81 10.752 10.752 10.752h94.96l.012 222.816H96.757z"/><path d="M265.383 102.228c-62.2 0-112.796 50.6-112.796 112.8 0 62.194 50.596 112.798 112.796 112.798 62.2 0 112.795-50.604 112.795-112.8 0-62.2-50.594-112.798-112.795-112.798zm0 209.473c-53.307 0-96.67-43.36-96.67-96.667 0-53.308 43.363-96.674 96.67-96.674 53.308 0 96.668 43.365 96.668 96.673 0 53.307-43.36 96.668-96.667 96.668z"/><path d="M238.378 248.52c-3.354-1.178-7.354-1.383-11.446-.364-9.084 2.272-15.03 9.755-13.292 16.727 1.017 6.448 10.525 10.764 19.594 8.488 7.982-1.978 13.546-8.02 13.583-14.19h.016l.21-65.06 46.925-8.584v52.297c-3.412-1.202-7.497-1.412-11.645-.386-9.18 2.3-15.183 9.848-13.42 16.906 1.76 7.037 10.62 10.875 19.798 8.606 8.363-2.114 13.72-7.854 13.72-15.035v-86.81l-64.042 10.39v77.016z"/></svg>