<svg xmlns="http://www.w3.org/2000/svg" width="550.801" height="550.801" viewBox="0 0 550.801 550.801"><path d="M287.782 413.95c-5.295 0-8.88.51-10.758 1.027v33.993c2.215.506 4.946.686 8.712.686 13.837 0 22.38-7.014 22.38-18.795 0-10.588-7.35-16.91-20.334-16.91z"/><path d="M475.084 131.992c-.02-2.526-.828-5.02-2.562-6.993L366.324 3.693c-.03-.034-.062-.045-.084-.076-.633-.707-1.37-1.29-2.15-1.804A11.34 11.34 0 0 0 361.252.5c-.202-.058-.38-.14-.58-.192a10.558 10.558 0 0 0-2.48-.308H97.2C85.282 0 75.6 9.693 75.6 21.6v507.6c0 11.914 9.682 21.602 21.6 21.602h356.4c11.908 0 21.6-9.688 21.6-21.6v-396c0-.406-.063-.804-.116-1.21zm-269.317 378.31l-1.706-44.077c-.52-13.837-1.02-30.58-1.02-47.323h-.51c-3.596 14.69-8.374 31.092-12.813 44.587L175.7 508.41h-20.326l-12.295-44.58c-3.756-13.5-7.692-29.9-10.424-44.93h-.346c-.686 15.545-1.194 33.316-2.046 47.66l-2.046 43.738h-24.09l7.35-115.14h34.667l11.274 38.432c3.585 13.33 7.17 27.675 9.747 41.17h.506c3.25-13.326 7.172-28.53 10.937-41.34l12.295-38.263h33.993l6.328 115.14h-25.46zm117.547-52.788c-8.88 8.363-22.032 12.13-37.41 12.13-3.417 0-6.486-.17-8.886-.52v41.177h-25.795V396.695c8.024-1.365 19.3-2.39 35.188-2.39 16.063 0 27.507 3.07 35.195 9.23 7.34 5.8 12.31 15.372 12.31 26.646 0 11.276-3.767 20.837-10.6 27.334zm123.357 47.492c-8.036 2.73-23.234 6.486-38.442 6.486-21.01 0-36.208-5.29-46.808-15.546-10.59-9.903-16.4-24.943-16.22-41.85.168-38.265 28.012-60.134 65.76-60.134 14.86 0 26.313 2.906 31.945 5.638l-5.463 20.84c-6.317-2.73-14.175-4.956-26.82-4.956-21.695 0-38.096 12.297-38.096 37.235 0 23.745 14.87 37.757 36.218 37.757 5.975 0 10.758-.686 12.814-1.703V464.68h-17.77v-20.323h42.877v60.65h.006zM97.2 366.752V21.602h250.192v110.514c0 5.96 4.842 10.8 10.8 10.8H453.6v223.836H97.2z"/><path d="M228.495 160.574a3.054 3.054 0 0 0-3.23-.34 3.047 3.047 0 0 0-1.705 2.715v128.787c0 1.14.675 2.226 1.706 2.71l1.34.312c.674 0 1.328-.232 1.89-.66l100.83-64.383a3.13 3.13 0 0 0 1.15-2.392c0-.907-.434-1.788-1.15-2.39l-100.83-64.36z"/></svg>