<svg xmlns="http://www.w3.org/2000/svg" width="550.801" height="550.801" viewBox="0 0 550.801 550.801"><path d="M475.095 131.992c-.032-2.526-.833-5.02-2.568-6.993L366.324 3.693c-.02-.03-.053-.045-.084-.076-.633-.707-1.36-1.29-2.14-1.804-.233-.15-.466-.285-.708-.422a11.662 11.662 0 0 0-2.13-.892c-.2-.058-.38-.14-.58-.192C359.87.118 359.046 0 358.2 0H97.2C85.292 0 75.6 9.693 75.6 21.6v507.6c0 11.914 9.692 21.602 21.6 21.602h356.4c11.918 0 21.6-9.688 21.6-21.6v-396c0-.406-.063-.804-.105-1.21zm-233.002 383.72l-1.83-47.188c-.55-14.818-1.097-32.743-1.097-50.678h-.55c-3.84 15.73-8.966 33.29-13.723 47.745l-15 48.105h-21.77l-13.164-47.74c-4.03-14.454-8.23-32.015-11.157-48.11h-.367c-.73 16.65-1.282 35.67-2.2 51.037l-2.19 46.828h-25.792l7.868-123.288h37.13l12.076 41.154c3.84 14.275 7.683 29.637 10.425 44.086h.55c3.48-14.275 7.682-30.55 11.708-44.266l13.174-40.975h36.4l6.766 123.29h-27.257zm78.86 1.83c-14.08 0-27.987-3.66-34.938-7.5l5.67-23.05c7.498 3.84 19.025 7.678 30.917 7.678 12.8 0 19.575-5.3 19.575-13.353 0-7.684-5.854-12.076-20.672-17.38-20.487-7.13-33.84-18.474-33.84-36.398 0-21.042 17.56-37.137 46.644-37.137 13.895 0 24.146 2.927 31.455 6.218l-6.212 22.503c-4.94-2.38-13.722-5.854-25.787-5.854-12.07 0-17.93 5.488-17.93 11.885 0 7.868 6.95 11.344 22.865 17.382 21.765 8.047 32.01 19.39 32.01 36.766.002 20.677-15.913 38.238-49.758 38.238zm96.598-1.83h-27.99V392.42h27.99v123.29zM97.2 366.75V21.602h250.203v110.514c0 5.96 4.83 10.8 10.8 10.8H453.6l.01 223.836H97.2z"/><path d="M339.54 201.108v-35.49l61.558-22.642-71.513-27.032 9.35-16.75-32.51-11.027-8.138 16.85c-1.762.376-4.335 1.012-4.578 1.06-46.38 10.967-116.757 27.347-120.73 27.59-.752.004-1.38.42-1.75 1.015l-.2-.12-.415-.29-.5-.09-18.58-3.556-16.503-3.153 14.942 7.678 11.404 5.868v194.727l32.72 9.244v-196.3l-.955-.27-9.904-6.222-7.502-4.693c16.406-3.077 101.055-23.98 120.16-28.495l26.235 9.336-120.962 31.24-.51-.19-.52-.253v195.855l89.32-23.06c-11.086-12.853-17.84-29.537-17.84-47.797.004-38.59 30.01-70.247 67.92-73.032zm-157.667-56.91l-18.74-4.998-12.052-6.188 18.582 3.55 12.21 7.635zm125.942-52.712L335 100.71l-7.31 13.08-25.918-9.797 6.043-12.507zm20.17 28.21l61.073 22.977L279 174.965l-64.63-24.382 113.616-30.886z"/><path d="M348.047 210.04c-36.767 0-66.577 29.802-66.577 66.552 0 36.77 29.81 66.577 66.577 66.577s66.562-29.812 66.562-66.578c-.002-36.75-29.797-66.553-66.563-66.553zm20.04 8.125l-14.46 29.518c-2.812-1.086-5.58-.514-5.58-.514l-8.374-30.99s11.1-4.98 28.413 1.985zm-20.05 84.63c-14.47 0-26.19-11.732-26.19-26.203 0-14.465 11.72-26.188 26.19-26.188s26.192 11.723 26.192 26.188c0 14.47-11.723 26.204-26.194 26.204z"/><path d="M348.047 253.43c-12.783 0-23.172 10.398-23.172 23.184 0 12.767 10.39 23.172 23.172 23.172 12.772 0 23.172-10.405 23.172-23.172 0-12.792-10.4-23.185-23.173-23.185zm0 43.675c-11.307 0-20.498-9.196-20.498-20.492 0-11.322 9.19-20.514 20.497-20.514 11.3 0 20.492 9.19 20.492 20.513.005 11.296-9.192 20.492-20.493 20.492z"/><path d="M348.047 265.523c-6.117 0-11.085 4.967-11.085 11.08 0 6.105 4.968 11.073 11.085 11.073 6.106 0 11.08-4.968 11.08-11.074 0-6.11-4.974-11.08-11.08-11.08zm0 19.475a8.405 8.405 0 0 1-8.406-8.406c0-4.63 3.767-8.4 8.407-8.4 4.63 0 8.406 3.763 8.406 8.4 0 4.646-3.776 8.406-8.406 8.406z"/></svg>