<svg xmlns="http://www.w3.org/2000/svg" width="550.801" height="550.801" viewBox="0 0 550.801 550.801"><path d="M475.095 132c-.032-2.53-.833-5.023-2.568-6.995L366.324 3.695c-.02-.032-.053-.043-.084-.077-.633-.707-1.36-1.29-2.14-1.804a11.456 11.456 0 0 0-2.838-1.31c-.2-.062-.38-.14-.58-.196C359.87.118 359.046 0 358.2 0H97.2C85.292 0 75.6 9.693 75.6 21.6v507.6c0 11.914 9.692 21.602 21.6 21.602h356.4c11.918 0 21.6-9.688 21.6-21.6V133.206c0-.403-.063-.81-.105-1.207zm-300.05 331.014c-7.532 7.093-18.672 10.277-31.692 10.277-2.892 0-5.508-.146-7.533-.44v34.877h-21.848v-96.23c6.805-1.16 16.35-2.03 29.813-2.03 13.608 0 23.295 2.6 29.813 7.812 6.215 4.924 10.418 13.024 10.418 22.58 0 9.553-3.187 17.654-8.97 23.154zm84.095 0c-7.525 7.093-18.674 10.277-31.69 10.277-2.896 0-5.504-.146-7.53-.44v34.877h-21.847v-96.23c6.803-1.16 16.35-2.03 29.813-2.03 13.608 0 23.3 2.6 29.813 7.812 6.22 4.924 10.414 13.024 10.414 22.58 0 9.553-3.18 17.654-8.974 23.154zm90.616-34.293h-26.63v79.007h-22.15V428.72h-26.19v-18.525h74.97v18.526zm65.707 79.007l-8.828-17.655c-3.612-6.803-5.933-11.865-8.68-17.508h-.285c-2.035 5.643-4.493 10.705-7.53 17.508l-8.11 17.655h-25.176l28.224-49.35-27.21-48.183h25.322l8.537 17.798c2.896 5.938 5.068 10.71 7.383 16.21h.29c2.32-6.222 4.198-10.567 6.655-16.21l8.248-17.798h25.186l-27.502 47.614 28.936 49.918h-25.46zM97.2 366.757V21.606h250.203v110.52c0 5.96 4.83 10.8 10.8 10.8H453.6l.01 223.833H97.2z"/><path d="M144.946 426.11c-4.485 0-7.533.438-9.12.87v28.798c1.884.438 4.197.575 7.382.575 11.723 0 18.966-5.933 18.966-15.916-.008-8.974-6.233-14.327-17.228-14.327zM229.04 426.11c-4.486 0-7.526.438-9.114.87v28.798c1.886.438 4.195.575 7.375.575 11.732 0 18.967-5.933 18.967-15.916-.005-8.974-6.23-14.327-17.226-14.327zM199.682 120.02c-51.51 3.483-92.25 46.257-92.25 98.66 0 12.236 2.33 23.904 6.39 34.722l85.86-37.655V120.02zM118.14 263.3c16.325 32.234 49.688 54.378 88.292 54.378 33.404 0 62.883-16.596 80.812-41.94l-81.26-50.967-87.843 38.53zM212.425 118.67v94.96l82.54 51.78c7.884-14.212 12.408-30.542 12.408-47.946 0-53.31-42.17-96.65-94.948-98.793zM325.804 175.922h108v16.12h-108zM325.804 216.958h108v16.118h-108zM325.804 257.35h108v16.118h-108z"/></svg>