<svg xmlns="http://www.w3.org/2000/svg" width="548.291" height="548.291" viewBox="0 0 548.291 548.291"><path d="M147.1 411.02c-7.16 0-11.227.576-13.355.976v35.98h11.612c14.707 0 23.41-7.35 23.41-18.762 0-12-8.125-17.997-21.668-18.195zM269.78 412.183h-.386c-1.932 7.738-3.867 17.607-5.995 25.156l-7.736 27.664h28.828l-8.126-27.665c-2.334-7.744-4.657-17.42-6.586-25.157z"/><path d="M472.93 131.39c-.032-2.514-.84-4.997-2.567-6.96L364.656 3.677c-.03-.034-.062-.044-.084-.075-.63-.704-1.365-1.284-2.142-1.796A10.975 10.975 0 0 0 359.605.5c-.2-.058-.377-.14-.577-.19a10.406 10.406 0 0 0-2.467-.31H96.758C84.904 0 75.255 9.65 75.255 21.502V526.79c0 11.858 9.65 21.5 21.502 21.5h354.775c11.853 0 21.503-9.642 21.503-21.5V132.595c0-.404-.064-.8-.106-1.205zm-300.1 389.147c-2.13-3.68-5.23-14.314-9.09-30.378-3.483-16.248-9.09-20.704-21.092-20.894h-8.903v51.27h-29.22V391.87c9.482-1.555 23.613-2.71 39.277-2.71 19.353 0 32.903 2.897 42.187 10.247 7.734 6.188 11.997 15.287 11.997 27.28 0 16.646-11.798 28.06-23.024 32.12v.585c9.092 3.68 14.12 12.383 17.407 24.378 4.063 14.704 8.126 31.724 10.643 36.762H172.83v.005zm125.965 0l-10.058-33.475h-37.34l-9.284 33.475h-30.576l39.854-130.41h38.697l40.437 130.41h-31.73zm117.472 0c-2.13-3.68-5.233-14.314-9.103-30.378-3.475-16.248-9.092-20.704-21.082-20.894h-8.902v51.27h-29.218V391.87c9.48-1.555 23.6-2.71 39.276-2.71 19.35 0 32.893 2.897 42.184 10.247 7.737 6.188 12 15.287 12 27.28 0 16.646-11.81 28.06-23.034 32.12v.585c9.103 3.68 14.13 12.383 17.418 24.378 4.062 14.704 8.126 31.724 10.645 36.762h-30.183v.005zM96.757 365.08V21.503H345.81v110.01c0 5.936 4.82 10.752 10.75 10.752h94.973V365.08H96.757z"/><path d="M390.535 411.02c-7.16 0-11.223.576-13.354.976v35.98h11.612c14.698 0 23.413-7.35 23.413-18.762 0-12-8.126-17.997-21.67-18.195zM147.92 146.643h162.854v21.564H147.92zM310.775 195.827h27.538V256.784h-27.538v26.39H147.92v21.543h162.855v-20.32h81.43v-27.614h-45.502v-10.94h17.963v-8.1h-17.963v-9.41h17.963v-8.11h-17.963v-9.2h17.963v-8.096h-17.963v-7.1h45.5v-27.62h-81.428z"/><path d="M168.862 179.296H289.83v94.028H168.862z"/></svg>