<svg xmlns="http://www.w3.org/2000/svg" width="548.291" height="548.291" viewBox="0 0 548.291 548.291"><path d="M472.93 131.39c-.032-2.514-.83-5-2.557-6.96L364.656 3.677c-.02-.034-.053-.044-.084-.075-.63-.704-1.354-1.284-2.132-1.796-.23-.15-.462-.283-.703-.42a11.583 11.583 0 0 0-2.12-.887c-.2-.06-.378-.14-.578-.192A10.746 10.746 0 0 0 356.57 0H96.757C84.904 0 75.255 9.65 75.255 21.502V526.79c0 11.858 9.65 21.5 21.502 21.5h354.775c11.863 0 21.503-9.642 21.503-21.5V132.595c0-.404-.064-.8-.106-1.205zM207.73 513.866c-1.93-3.34-4.745-12.998-8.252-27.57-3.16-14.752-8.25-18.793-19.147-18.96h-8.08v46.53h-26.516v-116.78c8.606-1.406 21.422-2.46 35.65-2.46 17.563 0 29.854 2.63 38.28 9.306 7.03 5.617 10.89 13.868 10.89 24.757 0 15.105-10.715 25.46-20.9 29.15v.528c8.25 3.338 12.82 11.243 15.797 22.126 3.693 13.344 7.38 28.798 9.658 33.365h-27.38v.006zm124.172-95.88h-32.31v95.88h-26.868v-95.88h-31.792v-22.48h90.97v22.48zm86.59-.53h-45.48V444.5h42.498v21.774h-42.5v47.592h-26.866v-118.36h72.348v21.95zM96.756 365.08V21.503H345.82v110.01c0 5.936 4.81 10.752 10.752 10.752h94.96l.012 222.816H96.757z"/><path d="M184.37 414.473c-6.494 0-10.187.53-12.116.88v32.66h10.54c13.343 0 21.25-6.674 21.25-17.036 0-10.887-7.38-16.332-19.674-16.504zM323.42 122.902H310.93v-18.065l-30.92-30.93H151.76v218.218h43.412v49h159.165v-187.29L323.42 122.9zm2.316 13.478l17.765 17.77h-17.764v-17.77zm-14.808 135.04a22.57 22.57 0 0 1 0 2.778v-2.777zM282.323 87.383l17.76 17.77h-17.76v-17.77zM159.655 284.236V81.796h114.773v31.248h28.61V284.24H159.655v-.004zm186.79 48.996H203.06v-41.107h107.862v-12.603h25.082v-10.75h-25.082v-24.186h25.082v-10.75h-25.082v-26.318h25.082v-10.75h-25.082v-65.973h6.908v31.247h28.61v171.19h.006z"/><path d="M184.575 137.986h21.984l2.54 20.095h8.028l-8.78-63.596h-9.244L166.17 158.08h8.31l10.095-20.094zm12.364-24.727c1.884-3.87 3.488-7.833 5.186-11.605h.188c.283 3.772.756 8.4 1.134 11.7l2.45 18.4h-18.492l9.533-18.496zM228.008 127.226h69.434v10.75h-69.434zM228.008 154.548h69.434v10.75h-69.434zM172.254 180.98h125.188v10.75H172.254zM172.254 206.96h53.964v10.75h-53.964zM172.254 233.835h53.964v10.75h-53.964zM172.254 261.277h123.73v10.75h-123.73zM212.28 303.606h123.73v10.75H212.28zM270 242.33l-2.176-6.946c-18.142-48.885-30.302 5.6-30.302 5.6l-.794 3.36H293.295C278.06 214.56 270 242.33 270 242.33z"/></svg>