<svg xmlns="http://www.w3.org/2000/svg" width="550.801" height="550.801" viewBox="0 0 550.801 550.801"><path d="M475.095 131.986c-.032-2.525-.844-5.015-2.58-6.992L366.326 3.684c-.032-.03-.063-.045-.085-.07-.633-.713-1.37-1.29-2.15-1.804-.233-.15-.465-.29-.708-.422a10.7 10.7 0 0 0-2.13-.89c-.2-.06-.38-.146-.58-.19a10.507 10.507 0 0 0-2.48-.308H97.2C85.292 0 75.6 9.688 75.6 21.6v507.6c0 11.908 9.692 21.602 21.6 21.602h356.4c11.908 0 21.6-9.693 21.6-21.6V133.196c0-.406-.063-.804-.105-1.21zM198.893 412.92h-35.765v106.135h-29.73V412.92H98.21v-24.88h100.683v24.88zm45.5 106.135H214.65V388.04h29.742v131.015zM350.134 412.34h-50.34v29.934h47.04v24.1h-47.04v52.682h-29.742V388.04h80.082v24.3zm102.453 0h-50.352v29.934h47.045v24.1h-47.044v52.682h-29.73V388.04h80.082v24.3zM97.2 366.748V21.6h250.192v110.51c0 5.963 4.842 10.8 10.8 10.8H453.6V366.75H97.2z"/><path d="M385.01 162.896H274.244l-8.08-16.266c-1.3-2.094-3.735-4.335-7.587-4.335h-49.55c-2.4 0-5.356 1.965-6.894 4.335l-7.594 16.266h-28.76c-11.978 0-21.69 9.72-21.69 21.708v130.23c0 11.992 9.713 21.71 21.69 21.71h219.233c11.992 0 21.705-9.718 21.705-21.71v-130.23c-.01-11.988-9.712-21.708-21.71-21.708zm-77.6 142.172h-32.52c-4.474-10.314-9.95-26.852-18.23-24.943-9.13 2.078-14.02 22.14-14.65 24.943h-.155c-.627-3.026-5.864-26.156-18.797-37.758-13.2-11.83-26.024 33.603-27.174 37.758H167.42v-109.61h140v109.61h-.01zm50.013-16.78c-21.547 0-39.076-17.53-39.076-39.067 0-21.544 17.53-39.067 39.076-39.067 21.53 0 39.05 17.523 39.05 39.068.006 21.543-17.513 39.07-39.05 39.07z"/><path d="M357.423 214.495c-19.163 0-34.74 15.577-34.74 34.726 0 19.15 15.577 34.73 34.74 34.73 19.143 0 34.72-15.578 34.72-34.73 0-19.148-15.578-34.725-34.72-34.725zm-20.08 46.12L325.94 249.22l11.402-11.394v22.79zm20.08 18.815l-11.41-11.4h22.79l-11.38 11.4zm-11.41-49.023l11.41-11.393 11.375 11.393h-22.786zm28.95 30.21V237.82l11.396 11.393-11.397 11.4zM239.9 234.483c2.976 0 5.707-.264 8.144-.706 2.877 1.102 6.34 1.76 10.125 1.76 9.65 0 17.457-4.238 17.457-9.443 0-5.213-7.808-9.435-17.458-9.435-3.618 0-6.993.577-9.79 1.613a6.66 6.66 0 0 0-4.386-1.614h-2.555c-3.207 0-5.778 2.196-6.163 5-7.808.75-13.624 3.26-13.624 6.285 0 3.622 8.177 6.538 18.246 6.538z"/><circle cx="203.217" cy="224.402" r="7.819"/></svg>