<svg xmlns="http://www.w3.org/2000/svg" width="550.801" height="550.801" viewBox="0 0 550.801 550.801"><path d="M475.095 131.992c-.032-2.526-.844-5.02-2.58-6.993L366.326 3.693c-.032-.034-.063-.045-.085-.076-.633-.707-1.37-1.29-2.15-1.804A11.07 11.07 0 0 0 361.252.5c-.202-.058-.38-.14-.58-.192a10.558 10.558 0 0 0-2.48-.308H97.2C85.292 0 75.6 9.693 75.6 21.6v507.6c0 11.914 9.692 21.602 21.6 21.602h356.4c11.908 0 21.6-9.688 21.6-21.6v-396c0-.406-.063-.804-.105-1.21zM210.558 418.605h-35.764v106.128H145.06V418.605h-35.184V393.73H210.56v24.875zm88.256 106.128L286.96 501.02c-4.857-9.135-7.974-15.938-11.663-23.52h-.388c-2.725 7.582-6.023 14.385-10.105 23.52l-10.887 23.713H220.09l37.91-66.28-36.547-64.728h34.016l11.475 23.91c3.88 7.963 6.803 14.38 9.91 21.77h.392c3.1-8.36 5.632-14.19 8.933-21.77l11.085-23.91h33.824l-36.937 63.946 38.876 67.063h-34.216zm142.11-106.128h-35.766v106.128h-29.742V418.605h-35.19V393.73h100.687v24.875h.01zM97.2 366.752V21.602h250.192v110.514c0 5.96 4.842 10.8 10.8 10.8H453.6v223.836H97.2z"/><path d="M174.35 148.27h119.813c3.966 0 7.203-3.226 7.203-7.2s-3.237-7.192-7.203-7.192H174.35c-3.976 0-7.192 3.22-7.192 7.193s3.216 7.2 7.193 7.2zM370.797 191.432H174.16a7.19 7.19 0 0 0-7.192 7.192 7.195 7.195 0 0 0 7.193 7.198h196.637c3.976 0 7.203-3.225 7.203-7.198 0-3.976-3.228-7.192-7.203-7.192zM370.797 248.58H174.16a7.19 7.19 0 0 0-7.192 7.198 7.195 7.195 0 0 0 7.193 7.198h196.637a7.198 7.198 0 0 0 0-14.396zM370.797 307.1H174.16a7.195 7.195 0 0 0-7.192 7.197 7.19 7.19 0 0 0 7.193 7.193h196.637c3.976 0 7.203-3.217 7.203-7.193a7.202 7.202 0 0 0-7.203-7.198z"/></svg>