<svg xmlns="http://www.w3.org/2000/svg" width="550.801" height="550.801" viewBox="0 0 550.801 550.801"><path d="M475.095 131.986c-.032-2.525-.833-5.015-2.568-6.992L366.324 3.684c-.02-.03-.053-.045-.084-.07-.633-.713-1.36-1.29-2.14-1.804a10.984 10.984 0 0 0-2.84-1.313c-.2-.058-.378-.145-.58-.188-.81-.196-1.633-.31-2.477-.31H97.2C85.292 0 75.6 9.688 75.6 21.6v507.6c0 11.908 9.692 21.602 21.6 21.602h356.4c11.918 0 21.6-9.693 21.6-21.6V133.196c0-.406-.063-.804-.105-1.21zM192.1 504.91l-9.462-48.103c-2.15-11.29-3.974-21.737-5.303-34.52h-.33c-1.99 12.613-3.817 23.23-6.473 34.52l-10.61 48.104h-27.71l-26.545-111.817h27.045l8.456 46.122c2.49 13.268 4.812 27.706 6.637 38.99h.34c1.825-12.106 4.472-25.55 7.3-39.317l9.45-45.79h26.888l8.952 47.13c2.49 13.103 4.316 25.048 5.967 37.488h.34c1.66-12.445 4.147-25.55 6.465-38.828l9.13-45.784h25.717l-28.87 111.818h-27.382v-.01zm127.1 0l-8.626-28.697h-32.026l-7.965 28.698H244.37l34.173-111.817h33.18l34.68 111.818H319.2zm88.28 0h-29.532L342.11 393.094h27.717l13.595 47.282c3.818 13.268 7.3 26.05 9.956 39.988h.496c2.826-13.442 6.307-26.72 10.125-39.493l14.274-47.777h26.88L407.478 504.91zM97.2 366.748V21.6h250.203v110.51c0 5.963 4.83 10.8 10.8 10.8H453.6l.01 223.838H97.2z"/><path d="M294.32 412.014h-.337c-1.66 6.635-3.312 15.093-5.136 21.56l-6.645 23.73h24.722l-6.96-23.73c-1.993-6.636-3.987-14.926-5.643-21.56zM227.285 214.537c0-6.07-4.912-10.995-10.987-10.995H197.24c-6.075 0-10.987 4.925-10.987 10.995v46.91c0 6.075 4.913 10.995 10.987 10.995h19.058c6.075 0 10.987-4.925 10.987-10.995v11.702l107.947 46.79V155.303L227.285 202.84v11.697z"/></svg>