<svg xmlns="http://www.w3.org/2000/svg" width="571.539" height="571.539" viewBox="0 0 571.539 571.539"><path d="M492.985 136.956c-.033-2.62-.878-5.204-2.676-7.256L380.117 3.822c-.033-.03-.065-.046-.088-.074-.654-.74-1.42-1.338-2.232-1.87a11.092 11.092 0 0 0-2.942-1.363c-.21-.062-.396-.15-.602-.195-.833-.203-1.7-.32-2.574-.32H100.86C88.503 0 78.445 10.05 78.445 22.412v526.713c0 12.355 10.058 22.413 22.413 22.413h369.82c12.354 0 22.412-10.058 22.412-22.413V138.21c0-.42-.065-.834-.107-1.254zM213.2 519.96h-24.515l-8.46-43.065c-1.938-10.112-3.56-19.47-4.75-30.9h-.297c-1.784 11.29-3.424 20.788-5.79 30.9l-9.506 43.064h-24.814l-23.745-100.095h24.195l7.576 41.28c2.23 11.874 4.314 24.81 5.944 34.9h.306c1.62-10.832 4.008-22.872 6.523-35.19l8.474-40.99h24.068l8.023 42.185c2.22 11.736 3.856 22.423 5.34 33.564h.297c1.492-11.142 3.71-22.872 5.8-34.758l8.165-40.99h23.012L213.2 519.958zm123.732 0l-1.488-38.32c-.448-12.02-.887-26.59-.887-41.146h-.448c-3.12 12.772-7.277 27.043-11.143 38.775l-12.18 39.063H293.11l-10.69-38.774c-3.26-11.738-6.67-25.988-9.046-39.066h-.31c-.588 13.517-1.042 28.972-1.77 41.442l-1.78 38.017h-20.95l6.385-100.088h30.15l9.795 33.412c3.12 11.58 6.238 24.056 8.47 35.793h.44c2.824-11.58 6.247-24.806 9.51-35.94l10.69-33.265h29.563l5.492 100.094h-22.128zm89.577 0h-26.44l-32.084-100.095h24.817l12.168 42.32c3.41 11.875 6.534 23.322 8.91 35.804h.458c2.52-12.034 5.64-23.93 9.052-35.355l12.766-42.77h24.057L426.51 519.96zM100.86 380.554V22.412h259.614v114.672c0 6.187 5.024 11.207 11.206 11.207h99v232.266H100.86z"/><path d="M280.155 123.454c-58.396 0-105.902 47.508-105.902 105.908s47.51 105.907 105.902 105.907c58.408 0 105.916-47.51 105.916-105.908 0-58.4-47.507-105.908-105.915-105.908zm0 192.523c-47.745 0-86.61-38.86-86.61-86.615 0-47.757 38.865-86.61 86.61-86.61 47.762 0 86.622 38.853 86.622 86.61 0 47.756-38.86 86.615-86.622 86.615z"/><path d="M248.502 166.308c-1.014.465-1.653 1.518-1.653 2.626V293.27c0 1.112.638 2.152 1.652 2.622l1.284.296c.654 0 1.284-.23 1.813-.635l97.35-62.164a3.013 3.013 0 0 0 1.117-2.313c0-.875-.416-1.72-1.116-2.31l-97.35-62.142a2.88 2.88 0 0 0-3.098-.317z"/></svg>