<svg xmlns="http://www.w3.org/2000/svg" width="550.801" height="550.801" viewBox="0 0 550.801 550.801"><path d="M475.095 131.997c-.03-2.526-.828-5.02-2.562-6.992L366.325 3.695c-.02-.035-.053-.046-.085-.077-.633-.707-1.36-1.29-2.14-1.804-.233-.15-.465-.287-.708-.422a11.653 11.653 0 0 0-2.13-.892c-.2-.058-.38-.14-.58-.192A10.89 10.89 0 0 0 358.204 0H97.2C85.293 0 75.6 9.693 75.6 21.6v507.6c0 11.914 9.692 21.602 21.6 21.602h356.4c11.918 0 21.6-9.688 21.6-21.6V133.206c0-.41-.063-.81-.105-1.21zM201.192 523.22l-12.13-24.257c-4.966-9.345-8.15-16.306-11.927-24.058h-.398c-2.787 7.757-6.162 14.713-10.336 24.058l-11.14 24.258h-34.594l38.773-67.806-37.38-66.213h34.793l11.728 24.46c3.977 8.152 6.962 14.712 10.15 22.264h.388c3.185-8.543 5.767-14.513 9.142-22.265l11.34-24.46h34.594l-37.774 65.423 39.77 68.598h-34.998zm134.99 0h-83.71V389.213H282.9v108.56h53.282v25.45zm50.688 1.983c-15.304 0-30.417-3.977-37.97-8.152l6.166-25.048c8.158 4.166 20.683 8.342 33.607 8.342 13.917 0 21.268-5.758 21.268-14.512 0-8.354-6.364-13.126-22.464-18.89-22.265-7.752-36.793-20.08-36.793-39.562 0-22.865 19.09-40.368 50.715-40.368 15.104 0 26.235 3.186 34.193 6.76l-6.76 24.454c-5.368-2.584-14.92-6.36-28.028-6.36-13.12 0-19.48 5.96-19.48 12.926 0 8.548 7.552 12.323 24.85 18.884 23.656 8.754 34.793 21.072 34.793 39.962-.01 22.486-17.302 41.565-54.095 41.565zM97.2 366.758V21.605h250.204V132.12c0 5.963 4.83 10.8 10.8 10.8H453.6l.01 223.838H97.2z"/><path d="M307.353 138.375H128.25v167.4H402.3v-167.4h-94.947zm0 81h-84.148v-35.1h84.148v35.1zm-173.703-75.6h84.148v35.1H133.65v-35.1zm0 40.5h84.148v35.1H133.65v-35.1zm0 40.5h84.148v35.1H133.65v-35.1zm0 75.6v-35.1h84.148v35.1H133.65zm89.554 0v-35.1h84.148v35.1h-84.148zm173.696 0h-84.148v-35.1H396.9v35.1zm0-81h-84.148v-35.1H396.9v35.1zm-84.148-40.5v-35.1H396.9v35.1h-84.148z"/></svg>